<svg width="241" height="24" viewBox="0 0 241 24" fill="none" xmlns="http://www.w3.org/2000/svg">
<path fill-rule="evenodd" clip-rule="evenodd" d="M12.0814 23.9997C9.76322 23.9997 7.83541 23.2992 6.29531 21.5158C5.65359 20.7725 5.0814 19.9623 4.55734 19.1308L4.54664 19.1147L0.696375 12.5452C0.525252 12.2538 0.378194 11.9489 0.265894 11.6281C0.0707071 11.0532 0.00386215 10.5826 0.00118835 9.97568C-0.00148544 8.30456 0.00118835 6.63076 0.00118835 4.95964C0.00118835 4.00242 -0.0228758 3.24841 0.410279 2.36606C1.18301 0.788519 2.8568 0.0371825 4.55199 0.0157921C7.05734 -0.0162934 9.57873 0.0104445 12.0814 0.0104445C14.5841 0.0104445 17.1081 -0.0162934 19.6108 0.0157921C21.306 0.0371825 22.9771 0.788519 23.7499 2.36606C24.183 3.25109 24.1563 4.0051 24.1589 4.95964C24.1589 6.63076 24.1616 8.30456 24.1589 9.97568C24.1589 10.5826 24.0921 11.0532 23.8942 11.6281C23.7846 11.9489 23.6376 12.2511 23.4638 12.5452L19.6108 19.1147L19.6001 19.1308C19.0761 19.9623 18.5039 20.7725 17.8622 21.5158C16.3247 23.2992 14.3942 23.9997 12.0761 23.9997H12.0814Z" fill="#FF3466"/>
<path fill-rule="evenodd" clip-rule="evenodd" d="M12.0601 22.8422C10.1002 22.8396 8.48789 22.2861 7.17238 20.7593C6.62693 20.1283 6.08415 19.3797 5.53869 18.5134L1.69645 11.9572C1.55741 11.7219 1.45046 11.492 1.36222 11.2486C1.20714 10.7941 1.16169 10.4759 1.16169 9.97057C1.16169 8.55613 1.16169 6.88501 1.16169 4.9572C1.16169 4.06148 1.13495 3.51603 1.45313 2.87164C2.02532 1.70052 3.31142 1.18448 4.5681 1.16843C4.83281 1.16576 7.43709 1.16309 12.0628 1.16309C16.6884 1.16309 19.2927 1.16309 19.5574 1.16843C20.8168 1.18448 22.1002 1.70052 22.6724 2.87164C22.9879 3.51603 22.9612 4.06416 22.9638 4.9572C22.9638 6.88501 22.9665 8.55613 22.9638 9.97057C22.9638 10.4759 22.9157 10.7941 22.7633 11.2486C22.6777 11.492 22.5681 11.7219 22.4291 11.9572L18.5868 18.5134C18.0414 19.3797 17.4986 20.1283 16.9531 20.7593C15.6376 22.2861 14.0253 22.8369 12.0654 22.8422H12.0601ZM12.0601 2.62298H4.10554C3.36757 2.62298 2.76864 3.21924 2.76864 3.95988V9.89303C2.76864 10.516 2.91837 11.0508 3.2419 11.5855L4.53334 13.7166L7.54137 18.6818C8.45313 20.1257 10.1029 21.1257 12.0601 21.1203C14.0173 21.1257 15.667 20.1283 16.5788 18.6818L19.5868 13.7166L20.8783 11.5855C21.2018 11.0535 21.3515 10.5187 21.3515 9.89303V3.95988C21.3515 3.22191 20.7526 2.62298 20.0146 2.62298H12.0601Z" fill="#FFF4E1"/>
<path fill-rule="evenodd" clip-rule="evenodd" d="M21.3514 9.88994V3.95946C21.3514 3.22149 20.7525 2.62256 20.0145 2.62256H4.10545C3.36749 2.62256 2.76855 3.21882 2.76855 3.95946V9.89261C2.76855 10.5156 2.91829 11.0504 3.24182 11.5851L4.53326 13.7161L7.54128 18.6814C8.45305 20.1252 10.1028 21.1252 12.06 21.1199C14.0172 21.1252 15.667 20.1279 16.5787 18.6814L19.5867 13.7161L20.8782 11.5851C21.2017 11.053 21.3514 10.5183 21.3514 9.89261V9.88994Z" fill="#371853"/>
<path fill-rule="evenodd" clip-rule="evenodd" d="M13.5976 10.6924C14.9692 10.1336 16.2874 9.4651 17.3783 8.31804C17.4639 8.19505 17.4772 7.99184 17.4077 7.87419L17.2312 7.58008L17.0521 7.28061C16.9826 7.16296 16.8516 7.16831 16.766 7.29131C15.7259 8.38489 14.4772 9.04264 13.1751 9.58542C13.75 8.22179 14.2072 6.81804 14.1671 5.23783C14.143 5.09344 14.0093 4.93034 13.8703 4.90361L13.5334 4.81804L13.1965 4.73248C13.0681 4.7004 12.9746 4.79131 12.9959 4.94906C13.0334 6.46243 12.6163 7.8127 12.0762 9.12018C11.5173 7.74852 10.8489 6.42767 9.70183 5.33409C9.57884 5.24853 9.37563 5.23516 9.25798 5.30467L8.96119 5.48115L8.6644 5.65762C8.54675 5.72713 8.5521 5.85815 8.67509 5.94371C9.76868 6.98382 10.4264 8.23248 10.9692 9.53462C9.60558 8.95975 8.20183 8.50254 6.62162 8.54264C6.47723 8.56671 6.31413 8.7004 6.28739 8.83943L6.20183 9.17633L6.11627 9.51323C6.08419 9.64157 6.17509 9.73516 6.33285 9.71377C7.8382 9.67633 9.18579 10.0908 10.4906 10.6282C9.12162 11.187 7.80611 11.8555 6.7152 12.9999C6.62964 13.1229 6.61627 13.3261 6.68579 13.4437L6.86226 13.7405L7.03873 14.0373C7.10825 14.1549 7.23927 14.1496 7.32483 14.0266C8.36761 12.9303 9.62162 12.2699 10.9291 11.7245C10.3516 13.0934 9.889 14.5025 9.92911 16.0854C9.95852 16.2378 10.0976 16.3876 10.2259 16.4196L10.5628 16.5052L10.9024 16.5908C11.0307 16.6229 11.1243 16.5319 11.1029 16.3742C11.0681 14.8688 11.4826 13.5239 12.02 12.2191C12.5788 13.5854 13.2473 14.9009 14.3917 15.9918C14.5147 16.0774 14.7179 16.0908 14.8355 16.0213L15.1323 15.8448L15.4291 15.6683C15.5468 15.5988 15.5414 15.4678 15.4184 15.3822C14.3222 14.3394 13.6617 13.0854 13.1163 11.7779C14.4853 12.3555 15.8943 12.818 17.4772 12.7779C17.6216 12.7539 17.7794 12.6095 17.8115 12.4811L17.897 12.1442L17.9826 11.8073C18.0147 11.679 17.9238 11.5854 17.766 11.6068C16.2553 11.6416 14.905 11.2218 13.5976 10.6844V10.6924Z" fill="#FFF4E1"/>
<path d="M68.1709 5.13096C71.0531 5.33152 73.4625 7.2489 73.6445 10.1925C73.6499 10.254 73.6011 10.3077 73.5449 10.3077L70.2158 10.3155C70.0957 10.3154 70.0208 10.2541 69.9941 10.1339C69.7428 8.95497 69.0077 8.33215 67.7939 8.27061C65.2538 8.13692 64.6997 10.6984 64.8682 12.7198C64.9805 14.0754 65.5771 15.3242 66.9434 15.6398C68.3418 15.9606 69.5266 15.4468 69.9678 13.9815V13.9845C69.9945 13.9069 70.0668 13.8478 70.1523 13.8478L73.4492 13.8399C73.5719 13.8402 73.6657 13.9496 73.6445 14.0724C73.2675 16.2248 72.0451 17.6986 69.9756 18.4874C68.1174 19.1959 65.5856 18.9683 63.8584 17.8321C62.1899 16.7305 61.2725 15.0298 61.1094 12.7276C60.9677 10.7384 61.3796 8.6611 62.6924 7.19053C64.0614 5.66112 65.8875 4.97321 68.1709 5.13096ZM98.9219 5.1876C102.168 5.16354 104.818 7.77854 104.842 11.0245L104.855 12.8692C104.88 16.1152 102.265 18.7651 99.0186 18.7892L97.9062 18.797C94.6603 18.821 92.0104 16.2061 91.9863 12.9601L91.9727 11.1153C91.9487 7.86953 94.5638 5.21969 97.8096 5.19541L98.9219 5.1876ZM43.7158 5.30284C43.7905 5.30284 43.8494 5.36393 43.8496 5.43858V8.05967C43.8521 8.14504 43.7858 8.21484 43.7031 8.21495L39.9512 8.21983C39.8739 8.22005 39.8127 8.28127 39.8125 8.3585L39.8232 18.5616C39.8259 18.6418 39.7618 18.7061 39.6816 18.7062L36.3662 18.712C36.286 18.7093 36.2217 18.645 36.2217 18.5675L36.2061 8.36436C36.2061 8.28415 36.1439 8.22204 36.0664 8.22471H32.3154C32.2299 8.22738 32.165 8.16086 32.165 8.0753L32.1602 5.45225C32.1603 5.38014 32.2218 5.31918 32.2939 5.31651L43.7217 5.29991L43.7158 5.30284ZM59.2969 5.27842C59.3982 5.28128 59.4619 5.38786 59.4141 5.47862L54.7725 14.1398C54.6416 14.3802 54.5777 14.6473 54.5723 14.9171V18.5401C54.5723 18.6257 54.5025 18.6986 54.417 18.7013H51.1553L51.1572 18.6983C51.0692 18.6955 51.0031 18.6262 51.0029 18.5382L50.9971 14.9151C50.9971 14.6451 50.9298 14.3797 50.7988 14.1417L46.1523 5.48155C46.1044 5.39076 46.1708 5.28451 46.2695 5.28428L50.0078 5.27842C50.0773 5.27842 50.1415 5.31857 50.1709 5.37998L52.6572 10.6075C52.7107 10.7171 52.8584 10.7194 52.9092 10.6124L55.3955 5.37998C55.4249 5.3159 55.4891 5.27843 55.5586 5.27842H59.2969ZM80.2324 5.28623C80.3126 5.28891 80.3818 5.35888 80.3818 5.44444L80.377 10.3673C80.3772 10.4553 80.4468 10.5245 80.5322 10.5245L85.0537 10.5304C85.1391 10.5275 85.208 10.4576 85.208 10.3722L85.2139 5.44737C85.2139 5.36181 85.2807 5.29503 85.3662 5.29502H88.6953C88.7674 5.29781 88.8262 5.35644 88.8262 5.42588L88.8125 18.5724C88.8125 18.6419 88.7565 18.6983 88.6816 18.6983H85.3506C85.2677 18.6957 85.1982 18.6257 85.1982 18.5401L85.2031 13.6153C85.2031 13.5298 85.1334 13.4601 85.0479 13.4601L80.5264 13.4552C80.4411 13.458 80.3713 13.5271 80.3711 13.6124L80.3662 18.5382C80.3661 18.6235 80.2995 18.6904 80.2168 18.6905H76.8877C76.8156 18.6879 76.757 18.629 76.7568 18.5597L76.7695 5.41221C76.7696 5.34272 76.8265 5.28623 76.9014 5.28623H80.2324ZM98.1953 8.31553C96.8183 8.3289 95.7088 9.45513 95.7168 10.8321L95.7324 13.1954C95.7431 14.5724 96.8664 15.6846 98.2461 15.6739H98.6338C100.011 15.6604 101.12 14.5352 101.109 13.1583L101.094 10.795H101.096C101.085 9.41812 99.9625 8.30501 98.583 8.31553H98.1953Z" fill="#FFF4E1"/>
<path opacity="0.5" d="M118.76 5.18182H120.757L125.453 16.652H125.615L130.311 5.18182H132.309V19H130.743V8.50142H130.608L126.29 19H124.779L120.46 8.50142H120.326V19H118.76V5.18182ZM138.497 19.2429C137.841 19.2429 137.245 19.1192 136.709 18.8718C136.174 18.6199 135.749 18.2578 135.434 17.7855C135.119 17.3087 134.962 16.733 134.962 16.0582C134.962 15.4645 135.079 14.9832 135.313 14.6143C135.547 14.241 135.859 13.9486 136.251 13.7372C136.642 13.5258 137.074 13.3684 137.546 13.2649C138.023 13.157 138.502 13.0715 138.983 13.0085C139.613 12.9276 140.123 12.8668 140.515 12.8263C140.911 12.7814 141.198 12.7071 141.378 12.6037C141.563 12.5002 141.655 12.3203 141.655 12.0639V12.0099C141.655 11.3442 141.473 10.8269 141.108 10.4581C140.749 10.0893 140.202 9.90483 139.469 9.90483C138.709 9.90483 138.113 10.0713 137.681 10.4041C137.249 10.737 136.945 11.0923 136.77 11.4702L135.259 10.9304C135.529 10.3007 135.888 9.81037 136.338 9.45952C136.793 9.10417 137.287 8.85677 137.823 8.71733C138.362 8.57339 138.893 8.50142 139.415 8.50142C139.748 8.50142 140.13 8.5419 140.562 8.62287C140.998 8.69934 141.419 8.85902 141.824 9.10192C142.233 9.34482 142.573 9.71141 142.843 10.2017C143.112 10.692 143.247 11.3487 143.247 12.1719V19H141.655V17.5966H141.574C141.466 17.8215 141.286 18.0621 141.034 18.3185C140.782 18.5749 140.447 18.7931 140.029 18.973C139.611 19.1529 139.1 19.2429 138.497 19.2429ZM138.74 17.8125C139.37 17.8125 139.901 17.6888 140.333 17.4414C140.769 17.194 141.097 16.8746 141.318 16.4833C141.543 16.092 141.655 15.6804 141.655 15.2486V13.7912C141.588 13.8722 141.439 13.9464 141.21 14.0138C140.985 14.0768 140.724 14.133 140.427 14.1825C140.135 14.2275 139.849 14.268 139.57 14.304C139.296 14.3355 139.073 14.3625 138.902 14.3849C138.488 14.4389 138.102 14.5266 137.742 14.6481C137.386 14.765 137.098 14.9427 136.878 15.1811C136.662 15.415 136.554 15.7344 136.554 16.1392C136.554 16.6925 136.759 17.1108 137.168 17.3942C137.582 17.6731 138.106 17.8125 138.74 17.8125ZM146.154 19V8.63636H147.692V10.2017H147.8C147.989 9.68892 148.331 9.27285 148.826 8.95348C149.32 8.63411 149.878 8.47443 150.499 8.47443C150.616 8.47443 150.762 8.47668 150.937 8.48118C151.113 8.48568 151.246 8.49242 151.335 8.50142V10.1207C151.282 10.1072 151.158 10.087 150.964 10.06C150.775 10.0285 150.575 10.0128 150.364 10.0128C149.86 10.0128 149.41 10.1185 149.014 10.3299C148.623 10.5368 148.313 10.8247 148.083 11.1935C147.858 11.5579 147.746 11.974 147.746 12.4418V19H146.154ZM154.707 15.2216L154.68 13.2514H155.004L159.538 8.63636H161.509L156.678 13.5213H156.543L154.707 15.2216ZM153.223 19V5.18182H154.815V19H153.223ZM159.808 19L155.76 13.8722L156.893 12.7656L161.832 19H159.808ZM167.476 19.2159C166.478 19.2159 165.616 18.9955 164.892 18.5547C164.173 18.1094 163.617 17.4886 163.226 16.6925C162.839 15.8918 162.645 14.9607 162.645 13.8991C162.645 12.8376 162.839 11.902 163.226 11.0923C163.617 10.2782 164.161 9.64394 164.858 9.18963C165.56 8.73082 166.379 8.50142 167.314 8.50142C167.854 8.50142 168.387 8.59138 168.914 8.77131C169.44 8.95123 169.919 9.24361 170.351 9.64844C170.782 10.0488 171.127 10.5795 171.383 11.2408C171.639 11.902 171.768 12.7161 171.768 13.6832V14.358H163.779V12.9815H170.148C170.148 12.3968 170.031 11.875 169.797 11.4162C169.568 10.9574 169.24 10.5953 168.812 10.3299C168.39 10.0645 167.89 9.93182 167.314 9.93182C166.68 9.93182 166.131 10.0893 165.668 10.4041C165.209 10.7145 164.856 11.1193 164.609 11.6186C164.361 12.1179 164.238 12.6532 164.238 13.2244V14.142C164.238 14.9247 164.373 15.5882 164.643 16.1325C164.917 16.6722 165.297 17.0838 165.783 17.3672C166.269 17.6461 166.833 17.7855 167.476 17.7855C167.895 17.7855 168.273 17.727 168.61 17.6101C168.952 17.4886 169.246 17.3087 169.494 17.0703C169.741 16.8274 169.932 16.526 170.067 16.1662L171.606 16.598C171.444 17.1198 171.172 17.5786 170.789 17.9744C170.407 18.3658 169.935 18.6716 169.372 18.892C168.81 19.108 168.178 19.2159 167.476 19.2159ZM178.697 8.63636V9.98579H173.326V8.63636H178.697ZM174.892 6.15341H176.484V16.0312C176.484 16.4811 176.549 16.8184 176.68 17.0433C176.814 17.2637 176.985 17.4122 177.192 17.4886C177.404 17.5606 177.626 17.5966 177.86 17.5966C178.036 17.5966 178.18 17.5876 178.292 17.5696C178.405 17.5471 178.494 17.5291 178.562 17.5156L178.886 18.946C178.778 18.9865 178.627 19.027 178.434 19.0675C178.24 19.1125 177.995 19.1349 177.698 19.1349C177.249 19.1349 176.808 19.0382 176.376 18.8448C175.949 18.6514 175.593 18.3568 175.31 17.9609C175.031 17.5651 174.892 17.0658 174.892 16.4631V6.15341ZM186.652 5.18182H188.649L193.345 16.652H193.507L198.203 5.18182H200.2V19H198.635V8.50142H198.5L194.182 19H192.67L188.352 8.50142H188.217V19H186.652V5.18182ZM206.389 19.2429C205.732 19.2429 205.136 19.1192 204.601 18.8718C204.066 18.6199 203.641 18.2578 203.326 17.7855C203.011 17.3087 202.853 16.733 202.853 16.0582C202.853 15.4645 202.97 14.9832 203.204 14.6143C203.438 14.241 203.751 13.9486 204.142 13.7372C204.533 13.5258 204.965 13.3684 205.438 13.2649C205.914 13.157 206.393 13.0715 206.875 13.0085C207.504 12.9276 208.015 12.8668 208.406 12.8263C208.802 12.7814 209.09 12.7071 209.27 12.6037C209.454 12.5002 209.547 12.3203 209.547 12.0639V12.0099C209.547 11.3442 209.364 10.8269 209 10.4581C208.64 10.0893 208.094 9.90483 207.361 9.90483C206.6 9.90483 206.004 10.0713 205.573 10.4041C205.141 10.737 204.837 11.0923 204.662 11.4702L203.15 10.9304C203.42 10.3007 203.78 9.81037 204.23 9.45952C204.684 9.10417 205.179 8.85677 205.714 8.71733C206.254 8.57339 206.785 8.50142 207.307 8.50142C207.639 8.50142 208.022 8.5419 208.454 8.62287C208.89 8.69934 209.31 8.85902 209.715 9.10192C210.125 9.34482 210.464 9.71141 210.734 10.2017C211.004 10.692 211.139 11.3487 211.139 12.1719V19H209.547V17.5966H209.466C209.358 17.8215 209.178 18.0621 208.926 18.3185C208.674 18.5749 208.339 18.7931 207.921 18.973C207.502 19.1529 206.992 19.2429 206.389 19.2429ZM206.632 17.8125C207.262 17.8125 207.792 17.6888 208.224 17.4414C208.66 17.194 208.989 16.8746 209.209 16.4833C209.434 16.092 209.547 15.6804 209.547 15.2486V13.7912C209.479 13.8722 209.331 13.9464 209.101 14.0138C208.876 14.0768 208.616 14.133 208.319 14.1825C208.026 14.2275 207.741 14.268 207.462 14.304C207.187 14.3355 206.965 14.3625 206.794 14.3849C206.38 14.4389 205.993 14.5266 205.633 14.6481C205.278 14.765 204.99 14.9427 204.77 15.1811C204.554 15.415 204.446 15.7344 204.446 16.1392C204.446 16.6925 204.65 17.1108 205.06 17.3942C205.474 17.6731 205.998 17.8125 206.632 17.8125ZM215.53 15.2216L215.503 13.2514H215.827L220.361 8.63636H222.331L217.5 13.5213H217.365L215.53 15.2216ZM214.045 19V5.18182H215.638V19H214.045ZM220.631 19L216.582 13.8722L217.716 12.7656L222.655 19H220.631ZM228.299 19.2159C227.3 19.2159 226.439 18.9955 225.714 18.5547C224.995 18.1094 224.439 17.4886 224.048 16.6925C223.661 15.8918 223.468 14.9607 223.468 13.8991C223.468 12.8376 223.661 11.902 224.048 11.0923C224.439 10.2782 224.984 9.64394 225.681 9.18963C226.382 8.73082 227.201 8.50142 228.137 8.50142C228.676 8.50142 229.21 8.59138 229.736 8.77131C230.262 8.95123 230.741 9.24361 231.173 9.64844C231.605 10.0488 231.949 10.5795 232.205 11.2408C232.462 11.902 232.59 12.7161 232.59 13.6832V14.358H224.601V12.9815H230.971C230.971 12.3968 230.854 11.875 230.62 11.4162C230.39 10.9574 230.062 10.5953 229.635 10.3299C229.212 10.0645 228.712 9.93182 228.137 9.93182C227.502 9.93182 226.954 10.0893 226.49 10.4041C226.032 10.7145 225.679 11.1193 225.431 11.6186C225.184 12.1179 225.06 12.6532 225.06 13.2244V14.142C225.06 14.9247 225.195 15.5882 225.465 16.1325C225.739 16.6722 226.119 17.0838 226.605 17.3672C227.091 17.6461 227.655 17.7855 228.299 17.7855C228.717 17.7855 229.095 17.727 229.432 17.6101C229.774 17.4886 230.069 17.3087 230.316 17.0703C230.563 16.8274 230.755 16.526 230.89 16.1662L232.428 16.598C232.266 17.1198 231.994 17.5786 231.612 17.9744C231.229 18.3658 230.757 18.6716 230.195 18.892C229.632 19.108 229 19.2159 228.299 19.2159ZM235.012 19V8.63636H236.55V10.2017H236.658C236.847 9.68892 237.189 9.27285 237.684 8.95348C238.179 8.63411 238.737 8.47443 239.357 8.47443C239.474 8.47443 239.62 8.47668 239.796 8.48118C239.971 8.48568 240.104 8.49242 240.194 8.50142V10.1207C240.14 10.1072 240.016 10.087 239.823 10.06C239.634 10.0285 239.434 10.0128 239.222 10.0128C238.719 10.0128 238.269 10.1185 237.873 10.3299C237.482 10.5368 237.171 10.8247 236.942 11.1935C236.717 11.5579 236.604 11.974 236.604 12.4418V19H235.012Z" fill="#FFF4E1"/>
</svg>
