<svg width="215" height="24" viewBox="0 0 215 24" fill="none" xmlns="http://www.w3.org/2000/svg">
<path fill-rule="evenodd" clip-rule="evenodd" d="M12.0814 23.9997C9.76322 23.9997 7.83541 23.2992 6.29531 21.5158C5.65359 20.7725 5.0814 19.9623 4.55734 19.1308L4.54664 19.1147L0.696375 12.5452C0.525252 12.2538 0.378194 11.9489 0.265894 11.6281C0.0707071 11.0532 0.00386215 10.5826 0.00118835 9.97569C-0.00148544 8.30456 0.00118835 6.63076 0.00118835 4.95964C0.00118835 4.00242 -0.0228758 3.24841 0.410279 2.36606C1.18301 0.788519 2.8568 0.0371825 4.55199 0.0157921C7.05734 -0.0162934 9.57873 0.0104445 12.0814 0.0104445C14.5841 0.0104445 17.1081 -0.0162934 19.6108 0.0157921C21.306 0.0371825 22.9771 0.788519 23.7499 2.36606C24.183 3.25109 24.1563 4.0051 24.1589 4.95964C24.1589 6.63076 24.1616 8.30456 24.1589 9.97569C24.1589 10.5826 24.0921 11.0532 23.8942 11.6281C23.7846 11.9489 23.6376 12.2511 23.4638 12.5452L19.6108 19.1147L19.6001 19.1308C19.0761 19.9623 18.5039 20.7725 17.8622 21.5158C16.3247 23.2992 14.3942 23.9997 12.0761 23.9997H12.0814Z" fill="#FF3466"/>
<path fill-rule="evenodd" clip-rule="evenodd" d="M12.0601 22.8422C10.1002 22.8396 8.48789 22.2861 7.17238 20.7593C6.62693 20.1283 6.08415 19.3797 5.53869 18.5134L1.69645 11.9572C1.55741 11.7219 1.45046 11.492 1.36222 11.2486C1.20714 10.7941 1.16169 10.4759 1.16169 9.97057C1.16169 8.55613 1.16169 6.88501 1.16169 4.9572C1.16169 4.06148 1.13495 3.51603 1.45313 2.87164C2.02532 1.70052 3.31142 1.18448 4.5681 1.16843C4.83281 1.16576 7.43709 1.16309 12.0628 1.16309C16.6884 1.16309 19.2927 1.16309 19.5574 1.16843C20.8168 1.18448 22.1002 1.70052 22.6724 2.87164C22.9879 3.51603 22.9612 4.06416 22.9638 4.9572C22.9638 6.88501 22.9665 8.55613 22.9638 9.97057C22.9638 10.4759 22.9157 10.7941 22.7633 11.2486C22.6777 11.492 22.5681 11.7219 22.4291 11.9572L18.5868 18.5134C18.0414 19.3797 17.4986 20.1283 16.9531 20.7593C15.6376 22.2861 14.0253 22.8369 12.0654 22.8422H12.0601ZM12.0601 2.62298H4.10554C3.36757 2.62298 2.76864 3.21924 2.76864 3.95988V9.89303C2.76864 10.516 2.91837 11.0508 3.2419 11.5855L4.53334 13.7166L7.54137 18.6818C8.45313 20.1257 10.1029 21.1257 12.0601 21.1203C14.0173 21.1257 15.667 20.1283 16.5788 18.6818L19.5868 13.7166L20.8783 11.5855C21.2018 11.0535 21.3515 10.5187 21.3515 9.89303V3.95988C21.3515 3.22191 20.7526 2.62298 20.0146 2.62298H12.0601Z" fill="#FFF4E1"/>
<path fill-rule="evenodd" clip-rule="evenodd" d="M21.3514 9.88994V3.95946C21.3514 3.22149 20.7525 2.62256 20.0145 2.62256H4.10545C3.36749 2.62256 2.76855 3.21882 2.76855 3.95946V9.89261C2.76855 10.5156 2.91829 11.0504 3.24182 11.5851L4.53326 13.7161L7.54128 18.6814C8.45305 20.1252 10.1028 21.1252 12.06 21.1199C14.0172 21.1252 15.667 20.1279 16.5787 18.6814L19.5867 13.7161L20.8782 11.5851C21.2017 11.053 21.3514 10.5183 21.3514 9.89261V9.88994Z" fill="#371853"/>
<path fill-rule="evenodd" clip-rule="evenodd" d="M13.5976 10.6924C14.9692 10.1336 16.2874 9.4651 17.3783 8.31804C17.4639 8.19505 17.4772 7.99184 17.4077 7.87419L17.2312 7.58008L17.0521 7.28061C16.9826 7.16296 16.8516 7.16831 16.766 7.29131C15.7259 8.38489 14.4772 9.04264 13.1751 9.58542C13.75 8.22179 14.2072 6.81804 14.1671 5.23783C14.143 5.09344 14.0093 4.93034 13.8703 4.90361L13.5334 4.81804L13.1965 4.73248C13.0681 4.7004 12.9746 4.79131 12.9959 4.94906C13.0334 6.46243 12.6163 7.8127 12.0762 9.12018C11.5173 7.74852 10.8489 6.42767 9.70183 5.33409C9.57884 5.24853 9.37563 5.23516 9.25798 5.30467L8.96119 5.48115L8.6644 5.65762C8.54675 5.72713 8.5521 5.85815 8.67509 5.94371C9.76868 6.98382 10.4264 8.23248 10.9692 9.53462C9.60558 8.95975 8.20183 8.50254 6.62162 8.54264C6.47723 8.56671 6.31413 8.7004 6.28739 8.83943L6.20183 9.17633L6.11627 9.51323C6.08419 9.64157 6.17509 9.73516 6.33285 9.71377C7.8382 9.67633 9.18579 10.0908 10.4906 10.6282C9.12162 11.187 7.80611 11.8555 6.7152 12.9999C6.62964 13.1229 6.61627 13.3261 6.68579 13.4437L6.86226 13.7405L7.03873 14.0373C7.10825 14.1549 7.23927 14.1496 7.32483 14.0266C8.36761 12.9303 9.62162 12.2699 10.9291 11.7245C10.3516 13.0934 9.889 14.5025 9.92911 16.0854C9.95852 16.2378 10.0976 16.3876 10.2259 16.4196L10.5628 16.5052L10.9024 16.5908C11.0307 16.6229 11.1243 16.5319 11.1029 16.3742C11.0681 14.8688 11.4826 13.5239 12.02 12.2191C12.5788 13.5854 13.2473 14.9009 14.3917 15.9918C14.5147 16.0774 14.7179 16.0908 14.8355 16.0213L15.1323 15.8448L15.4291 15.6683C15.5468 15.5988 15.5414 15.4678 15.4184 15.3822C14.3222 14.3394 13.6617 13.0854 13.1163 11.7779C14.4853 12.3555 15.8943 12.818 17.4772 12.7779C17.6216 12.7539 17.7794 12.6095 17.8115 12.4811L17.897 12.1442L17.9826 11.8073C18.0147 11.679 17.9238 11.5854 17.766 11.6068C16.2553 11.6416 14.905 11.2218 13.5976 10.6844V10.6924Z" fill="#FFF4E1"/>
<path d="M68.1709 5.13096C71.0531 5.33152 73.4625 7.2489 73.6445 10.1925C73.6499 10.254 73.6011 10.3077 73.5449 10.3077L70.2158 10.3155C70.0957 10.3154 70.0208 10.2541 69.9941 10.1339C69.7428 8.95497 69.0077 8.33215 67.7939 8.27061C65.2538 8.13692 64.6997 10.6984 64.8682 12.7198C64.9805 14.0754 65.5771 15.3242 66.9434 15.6398C68.3418 15.9606 69.5266 15.4468 69.9678 13.9815V13.9845C69.9945 13.9069 70.0668 13.8478 70.1523 13.8478L73.4492 13.8399C73.5719 13.8402 73.6657 13.9496 73.6445 14.0724C73.2675 16.2248 72.0451 17.6986 69.9756 18.4874C68.1174 19.1959 65.5856 18.9683 63.8584 17.8321C62.1899 16.7305 61.2725 15.0298 61.1094 12.7276C60.9677 10.7384 61.3796 8.6611 62.6924 7.19053C64.0614 5.66112 65.8875 4.97321 68.1709 5.13096ZM98.9219 5.1876C102.168 5.16354 104.818 7.77854 104.842 11.0245L104.855 12.8692C104.88 16.1152 102.265 18.7651 99.0186 18.7892L97.9062 18.797C94.6603 18.821 92.0104 16.2061 91.9863 12.9601L91.9727 11.1153C91.9487 7.86953 94.5638 5.21969 97.8096 5.19541L98.9219 5.1876ZM43.7158 5.30284C43.7905 5.30284 43.8494 5.36393 43.8496 5.43858V8.05967C43.8521 8.14504 43.7858 8.21484 43.7031 8.21495L39.9512 8.21983C39.8739 8.22005 39.8127 8.28127 39.8125 8.3585L39.8232 18.5616C39.8259 18.6418 39.7618 18.7061 39.6816 18.7062L36.3662 18.712C36.286 18.7093 36.2217 18.645 36.2217 18.5675L36.2061 8.36436C36.2061 8.28415 36.1439 8.22204 36.0664 8.22471H32.3154C32.2299 8.22739 32.165 8.16086 32.165 8.0753L32.1602 5.45225C32.1603 5.38014 32.2218 5.31918 32.2939 5.31651L43.7217 5.29991L43.7158 5.30284ZM59.2969 5.27842C59.3982 5.28128 59.4619 5.38786 59.4141 5.47862L54.7725 14.1398C54.6416 14.3802 54.5777 14.6473 54.5723 14.9171V18.5401C54.5723 18.6257 54.5025 18.6986 54.417 18.7013H51.1553L51.1572 18.6983C51.0692 18.6955 51.0031 18.6262 51.0029 18.5382L50.9971 14.9151C50.9971 14.6451 50.9298 14.3797 50.7988 14.1417L46.1523 5.48155C46.1044 5.39076 46.1708 5.28451 46.2695 5.28428L50.0078 5.27842C50.0773 5.27842 50.1415 5.31857 50.1709 5.37998L52.6572 10.6075C52.7107 10.7171 52.8584 10.7194 52.9092 10.6124L55.3955 5.37998C55.4249 5.3159 55.4891 5.27843 55.5586 5.27842H59.2969ZM80.2324 5.28623C80.3126 5.28891 80.3818 5.35888 80.3818 5.44444L80.377 10.3673C80.3772 10.4553 80.4468 10.5245 80.5322 10.5245L85.0537 10.5304C85.1391 10.5275 85.208 10.4576 85.208 10.3722L85.2139 5.44737C85.2139 5.36181 85.2807 5.29503 85.3662 5.29502H88.6953C88.7674 5.29781 88.8262 5.35644 88.8262 5.42588L88.8125 18.5724C88.8125 18.6419 88.7565 18.6983 88.6816 18.6983H85.3506C85.2677 18.6957 85.1982 18.6257 85.1982 18.5401L85.2031 13.6153C85.203 13.5298 85.1334 13.4601 85.0479 13.4601L80.5264 13.4552C80.4411 13.458 80.3713 13.5271 80.3711 13.6124L80.3662 18.5382C80.3661 18.6235 80.2995 18.6904 80.2168 18.6905H76.8877C76.8156 18.6879 76.757 18.629 76.7568 18.5597L76.7695 5.41221C76.7696 5.34272 76.8265 5.28623 76.9014 5.28623H80.2324ZM98.1953 8.31553C96.8183 8.3289 95.7088 9.45513 95.7168 10.8321L95.7324 13.1954C95.7431 14.5724 96.8664 15.6846 98.2461 15.6739H98.6338C100.011 15.6604 101.12 14.5352 101.109 13.1583L101.094 10.795H101.096C101.085 9.41812 99.9625 8.30501 98.583 8.31553H98.1953Z" fill="#FFF4E1"/>
<path opacity="0.5" d="M121.156 19L117.378 5.18182H119.078L121.966 16.4361H122.101L125.043 5.18182H126.932L129.874 16.4361H130.009L132.896 5.18182H134.597L130.818 19H129.091L126.041 7.98864H125.933L122.884 19H121.156ZM136.466 19V8.63636H138.058V19H136.466ZM137.275 6.90909C136.965 6.90909 136.697 6.80339 136.472 6.59197C136.252 6.38056 136.142 6.12642 136.142 5.82955C136.142 5.53267 136.252 5.27853 136.472 5.06712C136.697 4.85571 136.965 4.75 137.275 4.75C137.586 4.75 137.851 4.85571 138.072 5.06712C138.296 5.27853 138.409 5.53267 138.409 5.82955C138.409 6.12642 138.296 6.38056 138.072 6.59197C137.851 6.80339 137.586 6.90909 137.275 6.90909ZM142.567 12.7656V19H140.974V8.63636H142.513V10.2557H142.648C142.891 9.7294 143.26 9.30658 143.754 8.98722C144.249 8.66335 144.888 8.50142 145.67 8.50142C146.372 8.50142 146.986 8.64536 147.512 8.93324C148.039 9.21662 148.448 9.64844 148.74 10.2287C149.033 10.8045 149.179 11.5331 149.179 12.4148V19H147.587V12.5227C147.587 11.7086 147.375 11.0743 146.952 10.62C146.53 10.1612 145.949 9.93182 145.212 9.93182C144.703 9.93182 144.249 10.042 143.849 10.2624C143.453 10.4828 143.14 10.8045 142.911 11.2273C142.682 11.6501 142.567 12.1629 142.567 12.7656ZM156.596 8.63636V9.98579H151.225V8.63636H156.596ZM152.79 6.15341H154.383V16.0312C154.383 16.4811 154.448 16.8184 154.578 17.0433C154.713 17.2637 154.884 17.4122 155.091 17.4886C155.303 17.5606 155.525 17.5966 155.759 17.5966C155.935 17.5966 156.079 17.5876 156.191 17.5696C156.303 17.5471 156.393 17.5291 156.461 17.5156L156.785 18.946C156.677 18.9865 156.526 19.027 156.333 19.0675C156.139 19.1125 155.894 19.1349 155.597 19.1349C155.147 19.1349 154.707 19.0382 154.275 18.8448C153.847 18.6514 153.492 18.3568 153.209 17.9609C152.93 17.5651 152.79 17.0658 152.79 16.4631V6.15341ZM163.225 19.2159C162.226 19.2159 161.365 18.9955 160.641 18.5547C159.921 18.1094 159.366 17.4886 158.974 16.6925C158.587 15.8918 158.394 14.9607 158.394 13.8991C158.394 12.8376 158.587 11.902 158.974 11.0923C159.366 10.2782 159.91 9.64394 160.607 9.18963C161.309 8.73082 162.127 8.50142 163.063 8.50142C163.603 8.50142 164.136 8.59138 164.662 8.77131C165.188 8.95123 165.667 9.24361 166.099 9.64844C166.531 10.0488 166.875 10.5795 167.132 11.2408C167.388 11.902 167.516 12.7161 167.516 13.6832V14.358H159.527V12.9815H165.897C165.897 12.3968 165.78 11.875 165.546 11.4162C165.317 10.9574 164.988 10.5953 164.561 10.3299C164.138 10.0645 163.639 9.93182 163.063 9.93182C162.429 9.93182 161.88 10.0893 161.417 10.4041C160.958 10.7145 160.605 11.1193 160.357 11.6186C160.11 12.1179 159.986 12.6532 159.986 13.2244V14.142C159.986 14.9247 160.121 15.5882 160.391 16.1325C160.665 16.6722 161.046 17.0838 161.531 17.3672C162.017 17.6461 162.582 17.7855 163.225 17.7855C163.643 17.7855 164.021 17.727 164.358 17.6101C164.7 17.4886 164.995 17.3087 165.242 17.0703C165.49 16.8274 165.681 16.526 165.816 16.1662L167.354 16.598C167.192 17.1198 166.92 17.5786 166.538 17.9744C166.155 18.3658 165.683 18.6716 165.121 18.892C164.559 19.108 163.927 19.2159 163.225 19.2159ZM169.938 19V8.63636H171.477V10.2017H171.585C171.774 9.68892 172.115 9.27285 172.61 8.95348C173.105 8.63411 173.663 8.47443 174.284 8.47443C174.4 8.47443 174.547 8.47668 174.722 8.48118C174.898 8.48568 175.03 8.49242 175.12 8.50142V10.1207C175.066 10.1072 174.942 10.087 174.749 10.06C174.56 10.0285 174.36 10.0128 174.149 10.0128C173.645 10.0128 173.195 10.1185 172.799 10.3299C172.408 10.5368 172.097 10.8247 171.868 11.1935C171.643 11.5579 171.531 11.974 171.531 12.4418V19H169.938ZM180.902 19.2159C179.931 19.2159 179.094 18.9865 178.393 18.5277C177.691 18.0689 177.151 17.4369 176.773 16.6317C176.395 15.8266 176.206 14.9067 176.206 13.8722C176.206 12.8196 176.4 11.8907 176.787 11.0856C177.178 10.2759 177.722 9.64394 178.42 9.18963C179.121 8.73082 179.94 8.50142 180.875 8.50142C181.604 8.50142 182.261 8.63636 182.846 8.90625C183.43 9.17614 183.909 9.55398 184.283 10.0398C184.656 10.5256 184.888 11.0923 184.978 11.7401H183.385C183.264 11.2678 182.994 10.8494 182.576 10.4851C182.162 10.1162 181.604 9.93182 180.902 9.93182C180.282 9.93182 179.737 10.0937 179.27 10.4176C178.806 10.737 178.444 11.189 178.183 11.7738C177.927 12.354 177.799 13.0355 177.799 13.8182C177.799 14.6188 177.925 15.3161 178.177 15.9098C178.433 16.5036 178.793 16.9646 179.256 17.293C179.724 17.6213 180.273 17.7855 180.902 17.7855C181.316 17.7855 181.692 17.7135 182.029 17.5696C182.367 17.4257 182.652 17.2188 182.886 16.9489C183.12 16.679 183.286 16.3551 183.385 15.9773H184.978C184.888 16.589 184.665 17.14 184.31 17.6303C183.959 18.1161 183.493 18.503 182.913 18.7908C182.337 19.0742 181.667 19.2159 180.902 19.2159ZM193.837 14.7628V8.63636H195.429V19H193.837V17.2457H193.729C193.486 17.772 193.108 18.2196 192.595 18.5884C192.083 18.9528 191.435 19.1349 190.652 19.1349C190.004 19.1349 189.429 18.9933 188.925 18.7099C188.421 18.422 188.025 17.9902 187.737 17.4144C187.449 16.8342 187.306 16.1032 187.306 15.2216V8.63636H188.898V15.1136C188.898 15.8693 189.109 16.4721 189.532 16.9219C189.959 17.3717 190.504 17.5966 191.165 17.5966C191.561 17.5966 191.963 17.4954 192.373 17.293C192.786 17.0906 193.133 16.7802 193.412 16.3619C193.695 15.9435 193.837 15.4105 193.837 14.7628ZM202.853 8.63636V9.98579H197.482V8.63636H202.853ZM199.047 6.15341H200.64V16.0312C200.64 16.4811 200.705 16.8184 200.835 17.0433C200.97 17.2637 201.141 17.4122 201.348 17.4886C201.559 17.5606 201.782 17.5966 202.016 17.5966C202.191 17.5966 202.335 17.5876 202.448 17.5696C202.56 17.5471 202.65 17.5291 202.718 17.5156L203.042 18.946C202.934 18.9865 202.783 19.027 202.59 19.0675C202.396 19.1125 202.151 19.1349 201.854 19.1349C201.404 19.1349 200.963 19.0382 200.532 18.8448C200.104 18.6514 199.749 18.3568 199.466 17.9609C199.187 17.5651 199.047 17.0658 199.047 16.4631V6.15341ZM209.482 19.2159C208.483 19.2159 207.622 18.9955 206.898 18.5547C206.178 18.1094 205.622 17.4886 205.231 16.6925C204.844 15.8918 204.651 14.9607 204.651 13.8991C204.651 12.8376 204.844 11.902 205.231 11.0923C205.622 10.2782 206.167 9.64394 206.864 9.18963C207.566 8.73082 208.384 8.50142 209.32 8.50142C209.86 8.50142 210.393 8.59138 210.919 8.77131C211.445 8.95123 211.924 9.24361 212.356 9.64844C212.788 10.0488 213.132 10.5795 213.388 11.2408C213.645 11.902 213.773 12.7161 213.773 13.6832V14.358H205.784V12.9815H212.154C212.154 12.3968 212.037 11.875 211.803 11.4162C211.573 10.9574 211.245 10.5953 210.818 10.3299C210.395 10.0645 209.896 9.93182 209.32 9.93182C208.686 9.93182 208.137 10.0893 207.674 10.4041C207.215 10.7145 206.862 11.1193 206.614 11.6186C206.367 12.1179 206.243 12.6532 206.243 13.2244V14.142C206.243 14.9247 206.378 15.5882 206.648 16.1325C206.922 16.6722 207.302 17.0838 207.788 17.3672C208.274 17.6461 208.839 17.7855 209.482 17.7855C209.9 17.7855 210.278 17.727 210.615 17.6101C210.957 17.4886 211.252 17.3087 211.499 17.0703C211.747 16.8274 211.938 16.526 212.073 16.1662L213.611 16.598C213.449 17.1198 213.177 17.5786 212.795 17.9744C212.412 18.3658 211.94 18.6716 211.378 18.892C210.815 19.108 210.183 19.2159 209.482 19.2159Z" fill="#FFF4E1"/>
</svg>
