<svg width="160" height="32" viewBox="0 0 160 32" fill="none" xmlns="http://www.w3.org/2000/svg">
<path fill-rule="evenodd" clip-rule="evenodd" d="M12.0814 27.9997C9.76322 27.9997 7.83541 27.2992 6.29531 25.5158C5.65359 24.7725 5.0814 23.9623 4.55734 23.1308L4.54664 23.1147L0.696375 16.5452C0.525252 16.2538 0.378194 15.9489 0.265894 15.6281C0.0707071 15.0532 0.00386215 14.5826 0.00118835 13.9757C-0.00148544 12.3046 0.00118835 10.6308 0.00118835 8.95964C0.00118835 8.00242 -0.0228758 7.24841 0.410279 6.36606C1.18301 4.78852 2.8568 4.03718 4.55199 4.01579C7.05734 3.98371 9.57873 4.01044 12.0814 4.01044C14.5841 4.01044 17.1081 3.98371 19.6108 4.01579C21.306 4.03718 22.9771 4.78852 23.7499 6.36606C24.183 7.25109 24.1563 8.0051 24.1589 8.95964C24.1589 10.6308 24.1616 12.3046 24.1589 13.9757C24.1589 14.5826 24.0921 15.0532 23.8942 15.6281C23.7846 15.9489 23.6376 16.2511 23.4638 16.5452L19.6108 23.1147L19.6001 23.1308C19.0761 23.9623 18.5039 24.7725 17.8622 25.5158C16.3247 27.2992 14.3942 27.9997 12.0761 27.9997H12.0814Z" fill="#FF3466"/>
<path fill-rule="evenodd" clip-rule="evenodd" d="M12.06 26.842C10.1001 26.8393 8.48783 26.2858 7.17232 24.7591C6.62687 24.1281 6.08408 23.3794 5.53863 22.5131L1.69638 15.957C1.55735 15.7217 1.4504 15.4917 1.36216 15.2484C1.20708 14.7939 1.16163 14.4757 1.16163 13.9703C1.16163 12.5559 1.16163 10.8848 1.16163 8.95696C1.16163 8.06124 1.13489 7.51578 1.45307 6.8714C2.02526 5.70027 3.31136 5.18423 4.56804 5.16819C4.83275 5.16552 7.43703 5.16284 12.0627 5.16284C16.6884 5.16284 19.2926 5.16284 19.5573 5.16819C20.8167 5.18423 22.1001 5.70027 22.6723 6.8714C22.9878 7.51578 22.9611 8.06391 22.9638 8.95696C22.9638 10.8848 22.9664 12.5559 22.9638 13.9703C22.9638 14.4757 22.9156 14.7939 22.7632 15.2484C22.6777 15.4917 22.568 15.7217 22.429 15.957L18.5868 22.5131C18.0413 23.3794 17.4985 24.1281 16.9531 24.7591C15.6376 26.2858 14.0253 26.8366 12.0654 26.842H12.06ZM12.06 6.62273H4.10548C3.36751 6.62273 2.76858 7.21899 2.76858 7.95963V13.8928C2.76858 14.5158 2.91831 15.0505 3.24184 15.5853L4.53328 17.7163L7.5413 22.6816C8.45307 24.1254 10.1028 25.1254 12.06 25.1201C14.0172 25.1254 15.667 24.1281 16.5787 22.6816L19.5868 17.7163L20.8782 15.5853C21.2017 15.0532 21.3515 14.5185 21.3515 13.8928V7.95963C21.3515 7.22167 20.7525 6.62273 20.0146 6.62273H12.06Z" fill="#FFF4E1"/>
<path fill-rule="evenodd" clip-rule="evenodd" d="M21.3514 13.8901V7.95964C21.3514 7.22167 20.7525 6.62274 20.0145 6.62274H4.10545C3.36749 6.62274 2.76855 7.219 2.76855 7.95964V13.8928C2.76855 14.5158 2.91829 15.0505 3.24182 15.5853L4.53326 17.7163L7.54128 22.6816C8.45305 24.1254 10.1028 25.1254 12.06 25.1201C14.0172 25.1254 15.667 24.1281 16.5787 22.6816L19.5867 17.7163L20.8782 15.5853C21.2017 15.0532 21.3514 14.5185 21.3514 13.8928V13.8901Z" fill="#090909"/>
<path fill-rule="evenodd" clip-rule="evenodd" d="M13.5974 14.6923C14.9691 14.1334 16.2873 13.465 17.3782 12.3179C17.4637 12.1949 17.4771 11.9917 17.4076 11.8741L17.2311 11.58L17.052 11.2805C16.9825 11.1629 16.8514 11.1682 16.7659 11.2912C15.7258 12.3848 14.4771 13.0425 13.175 13.5853C13.7498 12.2217 14.2071 10.8179 14.167 9.23772C14.1429 9.09334 14.0092 8.93024 13.8702 8.9035L13.5333 8.81794L13.1964 8.73238C13.068 8.70029 12.9744 8.7912 12.9958 8.94895C13.0333 10.4623 12.6161 11.8126 12.076 13.1201C11.5172 11.7484 10.8488 10.4276 9.70171 9.33398C9.57872 9.24842 9.37551 9.23505 9.25786 9.30457L8.96107 9.48104L8.66428 9.65751C8.54663 9.72703 8.55198 9.85804 8.67497 9.94361C9.76856 10.9837 10.4263 12.2324 10.9691 13.5345C9.60545 12.9596 8.20171 12.5024 6.6215 12.5425C6.47711 12.5666 6.31401 12.7003 6.28727 12.8393L6.20171 13.1762L6.11615 13.5131C6.08406 13.6415 6.17497 13.735 6.33273 13.7137C7.83807 13.6762 9.18567 14.0907 10.4905 14.6281C9.1215 15.1869 7.80599 15.8554 6.71508 16.9998C6.62952 17.1227 6.61615 17.326 6.68567 17.4436L6.86214 17.7404L7.03861 18.0372C7.10813 18.1548 7.23914 18.1495 7.32471 18.0265C8.36749 16.9302 9.6215 16.2698 10.929 15.7244C10.3514 17.0933 9.88888 18.5024 9.92898 20.0853C9.9584 20.2377 10.0974 20.3875 10.2258 20.4195L10.5627 20.5051L10.9022 20.5907C11.0306 20.6227 11.1242 20.5318 11.1028 20.3741C11.068 18.8687 11.4825 17.5238 12.0199 16.219C12.5787 17.5853 13.2472 18.9008 14.3916 19.9917C14.5145 20.0773 14.7178 20.0907 14.8354 20.0211L15.1322 19.8447L15.429 19.6682C15.5466 19.5987 15.5413 19.4677 15.4183 19.3821C14.322 18.3393 13.6616 17.0853 13.1161 15.7778C14.4851 16.3554 15.8942 16.8179 17.4771 16.7778C17.6215 16.7538 17.7793 16.6094 17.8113 16.481L17.8969 16.1441L17.9825 15.8072C18.0145 15.6789 17.9236 15.5853 17.7659 15.6067C16.2552 15.6415 14.9049 15.2217 13.5974 14.6842V14.6923Z" fill="#FFF4E1"/>
<path d="M68.1709 9.13131C71.0532 9.33188 73.4626 11.2491 73.6445 14.1928C73.6499 14.2543 73.6011 14.3081 73.5449 14.3081L70.2158 14.3159C70.0957 14.3157 70.0209 14.2544 69.9941 14.1342C69.7428 12.9552 69.0077 12.3325 67.7939 12.271C65.2538 12.1373 64.6997 14.6988 64.8682 16.7202C64.9805 18.0756 65.5773 19.3236 66.9434 19.6391C68.3417 19.96 69.5266 19.4471 69.9678 17.9819V17.9848C69.9945 17.9073 70.0668 17.8481 70.1523 17.8481L73.4492 17.8403C73.572 17.8405 73.6659 17.9499 73.6445 18.0727C73.2675 20.2251 72.045 21.698 69.9756 22.4868C68.1175 23.1953 65.5857 22.9686 63.8584 21.8325C62.19 20.7309 61.2725 19.03 61.1094 16.728C60.9677 14.7387 61.3795 12.6605 62.6924 11.1899C64.0613 9.66073 65.8876 8.97357 68.1709 9.13131ZM98.9219 9.18795C102.168 9.16389 104.818 11.7789 104.842 15.0249L104.855 16.8696C104.879 20.1155 102.265 22.7654 99.0186 22.7895L97.9062 22.7973C94.6603 22.8214 92.0104 20.2064 91.9863 16.9604L91.9727 15.1157C91.9486 11.8698 94.5638 9.22004 97.8096 9.19577L98.9219 9.18795ZM43.7158 9.30319C43.7906 9.30319 43.8495 9.36415 43.8496 9.43893V12.059C43.8523 12.1445 43.7859 12.2142 43.7031 12.2143L39.9512 12.2202C39.8739 12.2204 39.8125 12.2815 39.8125 12.3589L39.8232 22.562C39.8259 22.6422 39.7618 22.7065 39.6816 22.7065L36.3662 22.7114C36.2861 22.7087 36.2219 22.6452 36.2217 22.5678L36.2061 12.3647C36.2061 12.2845 36.1439 12.2224 36.0664 12.2251H32.3154C32.2299 12.2277 32.1651 12.1611 32.165 12.0756L32.1602 9.4526C32.1602 9.38041 32.2218 9.31856 32.2939 9.31588L43.7217 9.30026L43.7158 9.30319ZM59.2969 9.27877C59.3983 9.28164 59.4621 9.38816 59.4141 9.47897L54.7725 18.1391C54.6415 18.3797 54.5776 18.6475 54.5723 18.9174V22.5405C54.5723 22.626 54.5025 22.6979 54.417 22.7006H51.1553L51.1572 22.6987C51.0691 22.6959 51.0029 22.6257 51.0029 22.5376L50.9971 18.9145C50.997 18.6446 50.9298 18.3799 50.7988 18.1421L46.1523 9.4819C46.1043 9.39109 46.1708 9.28389 46.2695 9.28366L50.0078 9.27877C50.0773 9.27877 50.1415 9.31884 50.1709 9.38034L52.6572 14.6079C52.7108 14.7173 52.8584 14.7196 52.9092 14.6128L55.3955 9.38034C55.4249 9.31617 55.4891 9.27878 55.5586 9.27877H59.2969ZM80.2324 9.28659C80.3126 9.28926 80.3818 9.35923 80.3818 9.44479L80.377 14.3667C80.377 14.4549 80.4467 14.5249 80.5322 14.5249L85.0537 14.5297C85.139 14.5269 85.2078 14.4578 85.208 14.3725L85.2139 9.44674C85.2141 9.36135 85.2808 9.2944 85.3662 9.2944H88.6953C88.7673 9.29717 88.8259 9.356 88.8262 9.42526L88.8125 22.5727C88.8125 22.6422 88.7565 22.6987 88.6816 22.6987H85.3506C85.2677 22.696 85.1982 22.6261 85.1982 22.5405L85.2031 17.6157C85.2031 17.5301 85.1334 17.4604 85.0479 17.4604L80.5264 17.4555C80.441 17.4584 80.3712 17.5273 80.3711 17.6128L80.3662 22.5376C80.3662 22.623 80.2995 22.6907 80.2168 22.6909H76.8877C76.8155 22.6882 76.7568 22.6286 76.7568 22.559L76.7695 9.41256C76.7695 9.34304 76.8265 9.28659 76.9014 9.28659H80.2324ZM98.1953 12.3159C96.8183 12.3293 95.7088 13.4555 95.7168 14.8325L95.7324 17.1958C95.7431 18.5728 96.8664 19.685 98.2461 19.6743H98.6338C100.011 19.6608 101.12 18.5354 101.109 17.1587L101.094 14.7944H101.096C101.085 13.4176 99.9625 12.3054 98.583 12.3159H98.1953Z" fill="#FFF4E1"/>
<g filter="url(#filter0_d_9440_7549)">
<path fill-rule="evenodd" clip-rule="evenodd" d="M126.91 20.9473L127.469 19.8259L128.097 18.5654L129.619 21.6179L132.419 15.9999L136.407 7.99988L139.047 13.2952L138.418 14.5557L137.859 15.6771L136.407 12.7638L132.419 20.7638L130.806 23.9999H128.432L126.91 20.9473Z" fill="#00FFBB"/>
<path fill-rule="evenodd" clip-rule="evenodd" d="M122.831 7.99988L125.47 13.2952L124.842 14.5557L124.283 15.6771L122.831 12.7638L118.843 20.7638L117.23 23.9999H114.856L118.843 15.9999L122.831 7.99988Z" fill="#00FFBB"/>
<path fill-rule="evenodd" clip-rule="evenodd" d="M133.629 20.9473L134.188 19.8259L134.816 18.5654L136.338 21.6179L139.138 15.9999L143.126 7.99988L147.114 15.9999L151.101 23.9999H148.727L147.114 20.7638L143.126 12.7638L139.138 20.7638L137.525 23.9999H135.151L133.629 20.9473Z" fill="#FF3466"/>
<path fill-rule="evenodd" clip-rule="evenodd" d="M129.55 7.99988L132.189 13.2952L131.561 14.5557L131.002 15.6771L129.55 12.7638L125.562 20.7638L123.949 23.9999H121.574L125.562 15.9999L129.55 7.99988Z" fill="#FF3466"/>
<path fill-rule="evenodd" clip-rule="evenodd" d="M140.486 20.9473L141.045 19.8259L141.674 18.5654L144.383 23.9999H142.008L140.486 20.9473Z" fill="#00FFBB"/>
</g>
<defs>
<filter id="filter0_d_9440_7549" x="106.856" y="-0.00012207" width="52.2457" height="32" filterUnits="userSpaceOnUse" color-interpolation-filters="sRGB">
<feFlood flood-opacity="0" result="BackgroundImageFix"/>
<feColorMatrix in="SourceAlpha" type="matrix" values="0 0 0 0 0 0 0 0 0 0 0 0 0 0 0 0 0 0 127 0" result="hardAlpha"/>
<feOffset/>
<feGaussianBlur stdDeviation="4"/>
<feComposite in2="hardAlpha" operator="out"/>
<feColorMatrix type="matrix" values="0 0 0 0 1 0 0 0 0 0.203922 0 0 0 0 0.4 0 0 0 0.6 0"/>
<feBlend mode="normal" in2="BackgroundImageFix" result="effect1_dropShadow_9440_7549"/>
<feBlend mode="normal" in="SourceGraphic" in2="effect1_dropShadow_9440_7549" result="shape"/>
</filter>
</defs>
</svg>
