<svg width="150" height="150" viewBox="0 0 150 150" fill="none" xmlns="http://www.w3.org/2000/svg">
<g clip-path="url(#clip0_9440_7611)">
<rect width="150" height="150" fill="#111111"/>
<g filter="url(#filter0_d_9440_7611)">
<path fill-rule="evenodd" clip-rule="evenodd" d="M56.0786 87.4605L57.8253 83.9564L59.7888 80.0171L64.5438 89.5564L73.295 72L85.7566 47L94.0051 63.5478L92.0416 67.4871L90.2948 70.9913L85.7566 61.8871L73.295 86.8871L68.2541 97H60.8336L56.0786 87.4605Z" fill="#00FFBB"/>
</g>
<g filter="url(#filter1_d_9440_7611)">
<path fill-rule="evenodd" clip-rule="evenodd" d="M43.331 47L51.5794 63.5478L49.6159 67.4871L47.8692 70.9913L43.331 61.8871L30.8694 86.8871L25.8284 97H18.4078L30.8694 72L43.331 47Z" fill="#00FFBB"/>
</g>
<g filter="url(#filter2_d_9440_7611)">
<path fill-rule="evenodd" clip-rule="evenodd" d="M77.0747 87.4605L78.8213 83.9564L80.7848 80.0171L85.5399 89.5564L94.2911 72L106.753 47L119.214 72L131.676 97H124.255L119.214 86.8871L106.753 61.8871L94.2911 86.8871L89.2501 97H81.8295L77.0747 87.4605Z" fill="#FF3466"/>
</g>
<g filter="url(#filter3_d_9440_7611)">
<path fill-rule="evenodd" clip-rule="evenodd" d="M64.3836 47L72.6321 63.5478L70.6686 67.4871L68.9217 70.9913L64.3836 61.8871L51.922 86.8871L46.8811 97H39.4605L51.922 72L64.3836 47Z" fill="#FF3466"/>
</g>
<g filter="url(#filter4_d_9440_7611)">
<path fill-rule="evenodd" clip-rule="evenodd" d="M98.5044 87.4605L100.251 83.9563L102.214 80.0171L110.68 97H103.259L98.5044 87.4605Z" fill="#00FFBB"/>
</g>
</g>
<defs>
<filter id="filter0_d_9440_7611" x="37.0786" y="28" width="75.9265" height="88" filterUnits="userSpaceOnUse" color-interpolation-filters="sRGB">
<feFlood flood-opacity="0" result="BackgroundImageFix"/>
<feColorMatrix in="SourceAlpha" type="matrix" values="0 0 0 0 0 0 0 0 0 0 0 0 0 0 0 0 0 0 127 0" result="hardAlpha"/>
<feOffset/>
<feGaussianBlur stdDeviation="9.5"/>
<feComposite in2="hardAlpha" operator="out"/>
<feColorMatrix type="matrix" values="0 0 0 0 0.0627451 0 0 0 0 0.945098 0 0 0 0 0.709804 0 0 0 0.4 0"/>
<feBlend mode="normal" in2="BackgroundImageFix" result="effect1_dropShadow_9440_7611"/>
<feBlend mode="normal" in="SourceGraphic" in2="effect1_dropShadow_9440_7611" result="shape"/>
</filter>
<filter id="filter1_d_9440_7611" x="-0.592161" y="28" width="71.1716" height="88" filterUnits="userSpaceOnUse" color-interpolation-filters="sRGB">
<feFlood flood-opacity="0" result="BackgroundImageFix"/>
<feColorMatrix in="SourceAlpha" type="matrix" values="0 0 0 0 0 0 0 0 0 0 0 0 0 0 0 0 0 0 127 0" result="hardAlpha"/>
<feOffset/>
<feGaussianBlur stdDeviation="9.5"/>
<feComposite in2="hardAlpha" operator="out"/>
<feColorMatrix type="matrix" values="0 0 0 0 0.0627451 0 0 0 0 0.945098 0 0 0 0 0.709804 0 0 0 0.4 0"/>
<feBlend mode="normal" in2="BackgroundImageFix" result="effect1_dropShadow_9440_7611"/>
<feBlend mode="normal" in="SourceGraphic" in2="effect1_dropShadow_9440_7611" result="shape"/>
</filter>
<filter id="filter2_d_9440_7611" x="58.0747" y="28" width="92.6011" height="88" filterUnits="userSpaceOnUse" color-interpolation-filters="sRGB">
<feFlood flood-opacity="0" result="BackgroundImageFix"/>
<feColorMatrix in="SourceAlpha" type="matrix" values="0 0 0 0 0 0 0 0 0 0 0 0 0 0 0 0 0 0 127 0" result="hardAlpha"/>
<feOffset/>
<feGaussianBlur stdDeviation="9.5"/>
<feComposite in2="hardAlpha" operator="out"/>
<feColorMatrix type="matrix" values="0 0 0 0 1 0 0 0 0 0.203922 0 0 0 0 0.4 0 0 0 0.6 0"/>
<feBlend mode="normal" in2="BackgroundImageFix" result="effect1_dropShadow_9440_7611"/>
<feBlend mode="normal" in="SourceGraphic" in2="effect1_dropShadow_9440_7611" result="shape"/>
</filter>
<filter id="filter3_d_9440_7611" x="20.4605" y="28" width="71.1716" height="88" filterUnits="userSpaceOnUse" color-interpolation-filters="sRGB">
<feFlood flood-opacity="0" result="BackgroundImageFix"/>
<feColorMatrix in="SourceAlpha" type="matrix" values="0 0 0 0 0 0 0 0 0 0 0 0 0 0 0 0 0 0 127 0" result="hardAlpha"/>
<feOffset/>
<feGaussianBlur stdDeviation="9.5"/>
<feComposite in2="hardAlpha" operator="out"/>
<feColorMatrix type="matrix" values="0 0 0 0 1 0 0 0 0 0.203922 0 0 0 0 0.4 0 0 0 0.6 0"/>
<feBlend mode="normal" in2="BackgroundImageFix" result="effect1_dropShadow_9440_7611"/>
<feBlend mode="normal" in="SourceGraphic" in2="effect1_dropShadow_9440_7611" result="shape"/>
</filter>
<filter id="filter4_d_9440_7611" x="79.5044" y="61.0171" width="50.1754" height="54.9829" filterUnits="userSpaceOnUse" color-interpolation-filters="sRGB">
<feFlood flood-opacity="0" result="BackgroundImageFix"/>
<feColorMatrix in="SourceAlpha" type="matrix" values="0 0 0 0 0 0 0 0 0 0 0 0 0 0 0 0 0 0 127 0" result="hardAlpha"/>
<feOffset/>
<feGaussianBlur stdDeviation="9.5"/>
<feComposite in2="hardAlpha" operator="out"/>
<feColorMatrix type="matrix" values="0 0 0 0 0.0627451 0 0 0 0 0.945098 0 0 0 0 0.709804 0 0 0 0.4 0"/>
<feBlend mode="normal" in2="BackgroundImageFix" result="effect1_dropShadow_9440_7611"/>
<feBlend mode="normal" in="SourceGraphic" in2="effect1_dropShadow_9440_7611" result="shape"/>
</filter>
<clipPath id="clip0_9440_7611">
<rect width="150" height="150" fill="white"/>
</clipPath>
</defs>
</svg>
