<svg width="16" height="16" viewBox="0 0 16 16" fill="none" xmlns="http://www.w3.org/2000/svg">
<path d="M8.00016 4.00008C8.36836 4.00008 8.66683 3.7016 8.66683 3.33341C8.66683 2.96523 8.36836 2.66675 8.00016 2.66675C7.63196 2.66675 7.3335 2.96523 7.3335 3.33341C7.3335 3.7016 7.63196 4.00008 8.00016 4.00008Z" stroke="#FFF4E0" stroke-linecap="round" stroke-linejoin="round"/>
<path d="M8.00016 8.66659C8.36836 8.66659 8.66683 8.36812 8.66683 7.99992C8.66683 7.63172 8.36836 7.33325 8.00016 7.33325C7.63196 7.33325 7.3335 7.63172 7.3335 7.99992C7.3335 8.36812 7.63196 8.66659 8.00016 8.66659Z" stroke="#FFF4E0" stroke-linecap="round" stroke-linejoin="round"/>
<path d="M8.00016 13.3333C8.36836 13.3333 8.66683 13.0349 8.66683 12.6667C8.66683 12.2985 8.36836 12 8.00016 12C7.63196 12 7.3335 12.2985 7.3335 12.6667C7.3335 13.0349 7.63196 13.3333 8.00016 13.3333Z" stroke="#FFF4E0" stroke-linecap="round" stroke-linejoin="round"/>
<path d="M12.6667 4.00008C13.0349 4.00008 13.3333 3.7016 13.3333 3.33341C13.3333 2.96523 13.0349 2.66675 12.6667 2.66675C12.2985 2.66675 12 2.96523 12 3.33341C12 3.7016 12.2985 4.00008 12.6667 4.00008Z" stroke="#FFF4E0" stroke-linecap="round" stroke-linejoin="round"/>
<path d="M12.6667 8.66659C13.0349 8.66659 13.3333 8.36812 13.3333 7.99992C13.3333 7.63172 13.0349 7.33325 12.6667 7.33325C12.2985 7.33325 12 7.63172 12 7.99992C12 8.36812 12.2985 8.66659 12.6667 8.66659Z" stroke="#FFF4E0" stroke-linecap="round" stroke-linejoin="round"/>
<path d="M12.6667 13.3333C13.0349 13.3333 13.3333 13.0349 13.3333 12.6667C13.3333 12.2985 13.0349 12 12.6667 12C12.2985 12 12 12.2985 12 12.6667C12 13.0349 12.2985 13.3333 12.6667 13.3333Z" stroke="#FFF4E0" stroke-linecap="round" stroke-linejoin="round"/>
<path d="M3.33317 4.00008C3.70136 4.00008 3.99984 3.7016 3.99984 3.33341C3.99984 2.96523 3.70136 2.66675 3.33317 2.66675C2.96498 2.66675 2.6665 2.96523 2.6665 3.33341C2.6665 3.7016 2.96498 4.00008 3.33317 4.00008Z" stroke="#FFF4E0" stroke-linecap="round" stroke-linejoin="round"/>
<path d="M3.33317 8.66659C3.70136 8.66659 3.99984 8.36812 3.99984 7.99992C3.99984 7.63172 3.70136 7.33325 3.33317 7.33325C2.96498 7.33325 2.6665 7.63172 2.6665 7.99992C2.6665 8.36812 2.96498 8.66659 3.33317 8.66659Z" stroke="#FFF4E0" stroke-linecap="round" stroke-linejoin="round"/>
<path d="M3.33317 13.3333C3.70136 13.3333 3.99984 13.0349 3.99984 12.6667C3.99984 12.2985 3.70136 12 3.33317 12C2.96498 12 2.6665 12.2985 2.6665 12.6667C2.6665 13.0349 2.96498 13.3333 3.33317 13.3333Z" stroke="#FFF4E0" stroke-linecap="round" stroke-linejoin="round"/>
</svg>
