<svg width="111" height="19" viewBox="0 0 111 19" fill="none" xmlns="http://www.w3.org/2000/svg">
<path d="M43.2892 18.0406L44.9685 13.8623L41.3301 5.13281H42.5989L44.9872 11.0458C45.124 11.4064 45.3168 11.8851 45.5656 12.482C45.6029 12.395 45.6402 12.2986 45.6776 12.1929C45.7149 12.0872 45.7522 11.9908 45.7895 11.9038C45.8642 11.7421 45.9295 11.5898 45.9854 11.4468C46.0414 11.3038 46.0943 11.1639 46.144 11.0271L48.3831 5.13281H49.5959L44.5021 18.0406H43.2892Z" fill="#072723"/>
<path d="M50.8262 18.04V5.13223H51.983V6.77368C52.2816 6.2141 52.7138 5.7571 53.2798 5.4027C53.8458 5.0483 54.4771 4.87109 55.1737 4.87109C56.0071 4.87109 56.7317 5.07317 57.3474 5.47731C57.9631 5.88146 58.4358 6.44104 58.7655 7.15607C59.0951 7.87109 59.2599 8.68249 59.2599 9.59026C59.2599 10.498 59.0889 11.3312 58.7468 12.0524C58.4047 12.7737 57.9227 13.3395 57.3007 13.7498C56.6788 14.1602 55.9698 14.3654 55.1737 14.3654C54.5019 14.3654 53.8831 14.2037 53.3171 13.8804C52.7511 13.5571 52.3064 13.0846 51.983 12.4628V18.04H50.8262ZM55.0057 13.4328C55.6152 13.4328 56.1532 13.2711 56.6197 12.9478C57.0862 12.6245 57.4438 12.1737 57.6926 11.5954C57.9414 11.0172 58.0658 10.3488 58.0658 9.59026C58.0658 8.83172 57.9383 8.20374 57.6833 7.63172C57.4283 7.05969 57.0706 6.61514 56.6104 6.29804C56.1501 5.98094 55.6152 5.82239 55.0057 5.82239C54.3962 5.82239 53.8769 5.97783 53.4104 6.28871C52.9439 6.59959 52.5801 7.04104 52.3189 7.61306C52.0576 8.18508 51.927 8.84415 51.927 9.59026C51.927 10.3364 52.0576 11.0172 52.3189 11.5954C52.5801 12.1737 52.9408 12.6245 53.4011 12.9478C53.8613 13.2711 54.3962 13.4328 55.0057 13.4328Z" fill="#072723"/>
<path d="M64.7835 14.3654C63.9376 14.3654 63.1944 14.1789 62.5538 13.8058C61.9132 13.4328 61.4156 12.8856 61.0611 12.1644C60.7066 11.4431 60.5293 10.5789 60.5293 9.57161C60.5293 8.67628 60.7128 7.87109 61.0797 7.15607C61.4467 6.44104 61.9474 5.88146 62.5818 5.47731C63.2162 5.07317 63.9252 4.87109 64.7089 4.87109C65.5547 4.87109 66.2762 5.06384 66.8733 5.44933C67.4703 5.83482 67.9244 6.37887 68.2354 7.08146C68.5463 7.78405 68.7018 8.60166 68.7018 9.53431V9.77679H61.6861C61.6861 10.5478 61.8167 11.2068 62.078 11.754C62.3392 12.3011 62.7062 12.7177 63.1788 13.0037C63.6515 13.2897 64.1926 13.4328 64.8021 13.4328C65.5236 13.4328 66.1238 13.2618 66.6027 12.9198C67.0816 12.5778 67.3771 12.0649 67.489 11.3809H68.6458C68.5588 11.953 68.3566 12.4628 68.0394 12.9105C67.7222 13.3581 67.2869 13.7125 66.7333 13.9737C66.1798 14.2348 65.5298 14.3654 64.7835 14.3654ZM67.4703 8.90011C67.4579 7.96747 67.2091 7.22135 66.724 6.66177C66.2389 6.10218 65.5672 5.82239 64.7089 5.82239C63.8506 5.82239 63.1882 6.11151 62.6471 6.68975C62.106 7.26798 61.7981 8.00477 61.7235 8.90011H67.4703Z" fill="#072723"/>
<path d="M70.4902 14.1043V5.13223H71.6471V6.92291C71.8959 6.32602 72.2846 5.83482 72.8132 5.44933C73.3419 5.06384 73.9608 4.87109 74.6698 4.87109C74.8439 4.87109 75.0119 4.88353 75.1736 4.9084V6.02757C74.9621 6.0027 74.7755 5.99026 74.6138 5.99026C74.0167 5.99026 73.4943 6.12394 73.0465 6.3913C72.5987 6.65866 72.2535 7.04104 72.0109 7.53845C71.7684 8.03586 71.6471 8.6141 71.6471 9.27317V14.1043H70.4902Z" fill="#072723"/>
<path d="M20.4523 7.53986C20.471 9.21862 20.1196 10.8228 19.4292 12.3554C18.4434 14.5378 16.0799 16.3222 13.9218 14.4228C12.1616 12.8746 11.8351 9.73157 9.19798 9.27147C5.7088 8.84867 5.62483 12.8932 3.34536 13.3502C0.804661 13.8663 -0.0380915 9.59478 -0.000774032 7.65489C0.0365434 5.71499 0.552769 2.98857 2.76072 2.98857C5.30142 2.98857 5.47245 6.83416 8.69731 6.62587C11.8911 6.40825 11.947 2.40722 14.0337 0.694265C15.8343 -0.785528 17.952 0.299446 19.0125 2.08079C19.9952 3.72846 20.4274 5.66214 20.4492 7.53986H20.4523Z" fill="#072723"/>
<path d="M30.0352 13.9941V1.01172H31.2666V6.62623H38.8607V1.01172H40.0736V13.9941H38.8607V7.67079H31.2666V13.9941H30.0352Z" fill="#072723"/>
<path d="M43.2892 17.9312L44.9685 13.753L41.3301 5.02344H42.5989L44.9872 10.9364C45.124 11.297 45.3168 11.7758 45.5656 12.3727C45.6029 12.2856 45.6402 12.1892 45.6776 12.0835C45.7149 11.9778 45.7522 11.8815 45.7895 11.7944C45.8642 11.6328 45.9295 11.4804 45.9854 11.3374C46.0414 11.1944 46.0943 11.0545 46.144 10.9177L48.3831 5.02344H49.5959L44.5021 17.9312H43.2892Z" fill="#072723"/>
<path d="M50.8262 17.9306V5.02286H51.983V6.66431C52.2816 6.10472 52.7138 5.64773 53.2798 5.29332C53.8458 4.93892 54.4771 4.76172 55.1737 4.76172C56.0071 4.76172 56.7317 4.96379 57.3474 5.36794C57.9631 5.77208 58.4358 6.33167 58.7655 7.04669C59.0951 7.76172 59.2599 8.57312 59.2599 9.48089C59.2599 10.3887 59.0889 11.2218 58.7468 11.9431C58.4047 12.6643 57.9227 13.2301 57.3007 13.6405C56.6788 14.0508 55.9698 14.256 55.1737 14.256C54.5019 14.256 53.8831 14.0944 53.3171 13.771C52.7511 13.4477 52.3064 12.9752 51.983 12.3534V17.9306H50.8262ZM55.0057 13.3234C55.6152 13.3234 56.1532 13.1617 56.6197 12.8384C57.0862 12.5151 57.4438 12.0643 57.6926 11.4861C57.9414 10.9078 58.0658 10.2394 58.0658 9.48089C58.0658 8.72234 57.9383 8.09436 57.6833 7.52234C57.4283 6.95032 57.0706 6.50576 56.6104 6.18866C56.1501 5.87156 55.6152 5.71301 55.0057 5.71301C54.3962 5.71301 53.8769 5.86845 53.4104 6.17934C52.9439 6.49022 52.5801 6.93167 52.3189 7.50369C52.0576 8.07571 51.927 8.73478 51.927 9.48089C51.927 10.227 52.0576 10.9078 52.3189 11.4861C52.5801 12.0643 52.9408 12.5151 53.4011 12.8384C53.8613 13.1617 54.3962 13.3234 55.0057 13.3234Z" fill="#072723"/>
<path d="M64.7835 14.256C63.9376 14.256 63.1944 14.0695 62.5538 13.6964C61.9132 13.3234 61.4156 12.7762 61.0611 12.055C60.7066 11.3337 60.5293 10.4695 60.5293 9.46224C60.5293 8.5669 60.7128 7.76172 61.0797 7.04669C61.4467 6.33167 61.9474 5.77208 62.5818 5.36794C63.2162 4.96379 63.9252 4.76172 64.7089 4.76172C65.5547 4.76172 66.2762 4.95446 66.8733 5.33996C67.4703 5.72545 67.9244 6.26949 68.2354 6.97208C68.5463 7.67467 68.7018 8.49229 68.7018 9.42493V9.66742H61.6861C61.6861 10.4384 61.8167 11.0975 62.078 11.6446C62.3392 12.1918 62.7062 12.6084 63.1788 12.8944C63.6515 13.1804 64.1926 13.3234 64.8021 13.3234C65.5236 13.3234 66.1238 13.1524 66.6027 12.8104C67.0816 12.4685 67.3771 11.9555 67.489 11.2716H68.6458C68.5588 11.8436 68.3566 12.3534 68.0394 12.8011C67.7222 13.2488 67.2869 13.6032 66.7333 13.8643C66.1798 14.1254 65.5298 14.256 64.7835 14.256ZM67.4703 8.79073C67.4579 7.85809 67.2091 7.11198 66.724 6.55239C66.2389 5.99281 65.5672 5.71301 64.7089 5.71301C63.8506 5.71301 63.1882 6.00213 62.6471 6.58037C62.106 7.15861 61.7981 7.8954 61.7235 8.79073H67.4703Z" fill="#072723"/>
<path d="M70.4902 13.9949V5.02286H71.6471V6.81353C71.8959 6.21664 72.2846 5.72545 72.8132 5.33996C73.3419 4.95446 73.9608 4.76172 74.6698 4.76172C74.8439 4.76172 75.0119 4.77415 75.1736 4.79902V5.9182C74.9621 5.89333 74.7755 5.88089 74.6138 5.88089C74.0167 5.88089 73.4943 6.01457 73.0465 6.28193C72.5987 6.54928 72.2535 6.93167 72.0109 7.42908C71.7684 7.92649 71.6471 8.50472 71.6471 9.16379V13.9949H70.4902Z" fill="#072723"/>
<path d="M87.5134 4.06375C87.6734 2.08375 86.4134 0.90375 84.2734 0.90375C81.3334 0.90375 78.9934 3.18375 78.2134 6.82375C77.3934 10.7238 79.2534 13.2438 82.0534 13.2438C84.1534 13.2438 86.0934 12.0638 87.2534 9.94375L87.5134 10.0038C86.2534 12.8038 83.9734 14.3038 81.5734 14.3038C77.8934 14.3038 75.8734 11.1438 76.7934 6.90375C77.6134 3.10375 80.8534 0.34375 84.3734 0.34375C86.0334 0.34375 87.5134 0.74375 88.4534 1.52375L87.7934 4.06375H87.5134Z" fill="#072723"/>
<path d="M91.4741 14.2838C89.1341 14.2838 87.7341 12.3638 88.3141 9.42375C88.8541 6.66375 90.8541 4.76375 93.2541 4.76375C95.6541 4.76375 96.9541 6.68375 96.3741 9.62375C95.8341 12.3838 93.8741 14.2838 91.4741 14.2838ZM89.5341 9.52375C89.0141 12.2038 89.8341 13.7838 91.5141 13.7838C93.3141 13.7838 94.6341 12.2038 95.1541 9.52375C95.6741 6.82375 94.9141 5.26375 93.1741 5.26375C91.4341 5.26375 90.0741 6.82375 89.5341 9.52375Z" fill="#072723"/>
<path d="M99.5096 7.42375C100.47 5.26375 102.15 4.28375 103.35 4.98375L102.95 6.10375C101.71 5.26375 99.7696 6.24375 99.1896 8.98375L98.4296 12.6838C98.2696 13.3638 98.7296 13.6638 100.05 13.7238L99.9896 14.0038H95.7496L95.8096 13.7238C96.7896 13.6038 97.2096 13.3238 97.3496 12.6838L98.6496 6.56375C98.7696 5.94375 98.5696 5.66375 97.9096 5.62375L97.6296 5.60375L97.6896 5.32375L100.09 4.76375L99.5096 7.42375Z" fill="#072723"/>
<path d="M103.614 8.94375C102.994 11.7038 104.014 13.3838 105.974 13.3838C107.474 13.3838 108.694 12.4638 109.234 11.3638L109.474 11.4237C108.774 13.2438 107.234 14.2638 105.434 14.2638C103.234 14.2638 101.734 12.4438 102.414 9.26375C102.974 6.60375 104.914 4.76375 107.294 4.76375C109.614 4.76375 110.754 6.22375 109.954 8.68375H103.674L103.614 8.94375ZM103.834 8.18375H108.874C109.514 6.30375 108.694 5.26375 107.134 5.26375C105.634 5.26375 104.434 6.44375 103.834 8.18375Z" fill="#072723"/>
</svg>
