<svg width="111" height="19" viewBox="0 0 111 19" fill="none" xmlns="http://www.w3.org/2000/svg">
<path d="M43.2912 18.0406L44.9705 13.8623L41.332 5.13281H42.6008L44.9891 11.0458C45.126 11.4064 45.3188 11.8851 45.5676 12.482C45.6049 12.395 45.6422 12.2986 45.6795 12.1929C45.7168 12.0872 45.7542 11.9908 45.7915 11.9038C45.8661 11.7421 45.9314 11.5898 45.9874 11.4468C46.0434 11.3038 46.0962 11.1639 46.146 11.0271L48.385 5.13281H49.5979L44.504 18.0406H43.2912Z" fill="#50D2C1"/>
<path d="M50.8281 18.04V5.13223H51.985V6.77368C52.2835 6.2141 52.7158 5.7571 53.2817 5.4027C53.8477 5.0483 54.479 4.87109 55.1756 4.87109C56.009 4.87109 56.7336 5.07317 57.3494 5.47731C57.9651 5.88146 58.4378 6.44104 58.7674 7.15607C59.0971 7.87109 59.2619 8.68249 59.2619 9.59026C59.2619 10.498 59.0908 11.3312 58.7488 12.0524C58.4067 12.7737 57.9247 13.3395 57.3027 13.7498C56.6807 14.1602 55.9717 14.3654 55.1756 14.3654C54.5039 14.3654 53.885 14.2037 53.3191 13.8804C52.7531 13.5571 52.3084 13.0846 51.985 12.4628V18.04H50.8281ZM55.0077 13.4328C55.6172 13.4328 56.1552 13.2711 56.6217 12.9478C57.0881 12.6245 57.4458 12.1737 57.6945 11.5954C57.9433 11.0172 58.0677 10.3488 58.0677 9.59026C58.0677 8.83172 57.9402 8.20374 57.6852 7.63172C57.4302 7.05969 57.0726 6.61514 56.6123 6.29804C56.1521 5.98094 55.6172 5.82239 55.0077 5.82239C54.3982 5.82239 53.8788 5.97783 53.4124 6.28871C52.9459 6.59959 52.582 7.04104 52.3208 7.61306C52.0596 8.18508 51.929 8.84415 51.929 9.59026C51.929 10.3364 52.0596 11.0172 52.3208 11.5954C52.582 12.1737 52.9428 12.6245 53.403 12.9478C53.8633 13.2711 54.3982 13.4328 55.0077 13.4328Z" fill="#50D2C1"/>
<path d="M64.7854 14.3654C63.9396 14.3654 63.1963 14.1789 62.5557 13.8058C61.9151 13.4328 61.4175 12.8856 61.063 12.1644C60.7085 11.4431 60.5312 10.5789 60.5312 9.57161C60.5312 8.67628 60.7147 7.87109 61.0817 7.15607C61.4486 6.44104 61.9493 5.88146 62.5837 5.47731C63.2181 5.07317 63.9271 4.87109 64.7108 4.87109C65.5567 4.87109 66.2781 5.06384 66.8752 5.44933C67.4723 5.83482 67.9263 6.37887 68.2373 7.08146C68.5483 7.78405 68.7038 8.60166 68.7038 9.53431V9.77679H61.6881C61.6881 10.5478 61.8187 11.2068 62.0799 11.754C62.3411 12.3011 62.7081 12.7177 63.1808 13.0037C63.6535 13.2897 64.1946 13.4328 64.8041 13.4328C65.5256 13.4328 66.1258 13.2618 66.6047 12.9198C67.0836 12.5778 67.379 12.0649 67.491 11.3809H68.6478C68.5607 11.953 68.3586 12.4628 68.0414 12.9105C67.7242 13.3581 67.2888 13.7125 66.7353 13.9737C66.1817 14.2348 65.5318 14.3654 64.7854 14.3654ZM67.4723 8.90011C67.4599 7.96747 67.2111 7.22135 66.7259 6.66177C66.2408 6.10218 65.5691 5.82239 64.7108 5.82239C63.8525 5.82239 63.1901 6.11151 62.649 6.68975C62.1079 7.26798 61.8 8.00477 61.7254 8.90011H67.4723Z" fill="#50D2C1"/>
<path d="M70.4922 14.1043V5.13223H71.649V6.92291C71.8978 6.32602 72.2865 5.83482 72.8152 5.44933C73.3439 5.06384 73.9627 4.87109 74.6717 4.87109C74.8459 4.87109 75.0138 4.88353 75.1755 4.9084V6.02757C74.9641 6.0027 74.7775 5.99026 74.6158 5.99026C74.0187 5.99026 73.4962 6.12394 73.0484 6.3913C72.6006 6.65866 72.2554 7.04104 72.0129 7.53845C71.7703 8.03586 71.649 8.6141 71.649 9.27317V14.1043H70.4922Z" fill="#50D2C1"/>
<path d="M20.4543 7.53986C20.4729 9.21862 20.1215 10.8228 19.4311 12.3554C18.4453 14.5378 16.0819 16.3222 13.9237 14.4228C12.1636 12.8746 11.837 9.73157 9.19993 9.27147C5.71075 8.84867 5.62679 12.8932 3.34731 13.3502C0.806615 13.8663 -0.0361384 9.59478 0.00117909 7.65489C0.0384966 5.71499 0.554722 2.98857 2.76267 2.98857C5.30337 2.98857 5.47441 6.83416 8.69926 6.62587C11.893 6.40825 11.949 2.40722 14.0357 0.694265C15.8362 -0.785528 17.954 0.299446 19.0144 2.08079C19.9971 3.72846 20.4294 5.66214 20.4512 7.53986H20.4543Z" fill="#50D2C1"/>
<path d="M30.0371 13.9941V1.01172H31.2686V6.62623H38.8627V1.01172H40.0755V13.9941H38.8627V7.67079H31.2686V13.9941H30.0371Z" fill="#50D2C1"/>
<path d="M43.2912 17.9312L44.9705 13.753L41.332 5.02344H42.6008L44.9891 10.9364C45.126 11.297 45.3188 11.7758 45.5676 12.3727C45.6049 12.2856 45.6422 12.1892 45.6795 12.0835C45.7168 11.9778 45.7542 11.8815 45.7915 11.7944C45.8661 11.6328 45.9314 11.4804 45.9874 11.3374C46.0434 11.1944 46.0962 11.0545 46.146 10.9177L48.385 5.02344H49.5979L44.504 17.9312H43.2912Z" fill="#50D2C1"/>
<path d="M50.8281 17.9306V5.02286H51.985V6.66431C52.2835 6.10472 52.7158 5.64773 53.2817 5.29332C53.8477 4.93892 54.479 4.76172 55.1756 4.76172C56.009 4.76172 56.7336 4.96379 57.3494 5.36794C57.9651 5.77208 58.4378 6.33167 58.7674 7.04669C59.0971 7.76172 59.2619 8.57312 59.2619 9.48089C59.2619 10.3887 59.0908 11.2218 58.7488 11.9431C58.4067 12.6643 57.9247 13.2301 57.3027 13.6405C56.6807 14.0508 55.9717 14.256 55.1756 14.256C54.5039 14.256 53.885 14.0944 53.3191 13.771C52.7531 13.4477 52.3084 12.9752 51.985 12.3534V17.9306H50.8281ZM55.0077 13.3234C55.6172 13.3234 56.1552 13.1617 56.6217 12.8384C57.0881 12.5151 57.4458 12.0643 57.6945 11.4861C57.9433 10.9078 58.0677 10.2394 58.0677 9.48089C58.0677 8.72234 57.9402 8.09436 57.6852 7.52234C57.4302 6.95032 57.0726 6.50576 56.6123 6.18866C56.1521 5.87156 55.6172 5.71301 55.0077 5.71301C54.3982 5.71301 53.8788 5.86845 53.4124 6.17934C52.9459 6.49022 52.582 6.93167 52.3208 7.50369C52.0596 8.07571 51.929 8.73478 51.929 9.48089C51.929 10.227 52.0596 10.9078 52.3208 11.4861C52.582 12.0643 52.9428 12.5151 53.403 12.8384C53.8633 13.1617 54.3982 13.3234 55.0077 13.3234Z" fill="#50D2C1"/>
<path d="M64.7854 14.256C63.9396 14.256 63.1963 14.0695 62.5557 13.6964C61.9151 13.3234 61.4175 12.7762 61.063 12.055C60.7085 11.3337 60.5312 10.4695 60.5312 9.46224C60.5312 8.5669 60.7147 7.76172 61.0817 7.04669C61.4486 6.33167 61.9493 5.77208 62.5837 5.36794C63.2181 4.96379 63.9271 4.76172 64.7108 4.76172C65.5567 4.76172 66.2781 4.95446 66.8752 5.33996C67.4723 5.72545 67.9263 6.26949 68.2373 6.97208C68.5483 7.67467 68.7038 8.49229 68.7038 9.42493V9.66742H61.6881C61.6881 10.4384 61.8187 11.0975 62.0799 11.6446C62.3411 12.1918 62.7081 12.6084 63.1808 12.8944C63.6535 13.1804 64.1946 13.3234 64.8041 13.3234C65.5256 13.3234 66.1258 13.1524 66.6047 12.8104C67.0836 12.4685 67.379 11.9555 67.491 11.2716H68.6478C68.5607 11.8436 68.3586 12.3534 68.0414 12.8011C67.7242 13.2488 67.2888 13.6032 66.7353 13.8643C66.1817 14.1254 65.5318 14.256 64.7854 14.256ZM67.4723 8.79073C67.4599 7.85809 67.2111 7.11198 66.7259 6.55239C66.2408 5.99281 65.5691 5.71301 64.7108 5.71301C63.8525 5.71301 63.1901 6.00213 62.649 6.58037C62.1079 7.15861 61.8 7.8954 61.7254 8.79073H67.4723Z" fill="#50D2C1"/>
<path d="M70.4922 13.9949V5.02286H71.649V6.81353C71.8978 6.21664 72.2865 5.72545 72.8152 5.33996C73.3439 4.95446 73.9627 4.76172 74.6717 4.76172C74.8459 4.76172 75.0138 4.77415 75.1755 4.79902V5.9182C74.9641 5.89333 74.7775 5.88089 74.6158 5.88089C74.0187 5.88089 73.4962 6.01457 73.0484 6.28193C72.6006 6.54928 72.2554 6.93167 72.0129 7.42908C71.7703 7.92649 71.649 8.50472 71.649 9.16379V13.9949H70.4922Z" fill="#50D2C1"/>
<path d="M87.5153 4.06375C87.6753 2.08375 86.4153 0.90375 84.2753 0.90375C81.3353 0.90375 78.9953 3.18375 78.2153 6.82375C77.3953 10.7238 79.2553 13.2438 82.0553 13.2438C84.1553 13.2438 86.0953 12.0638 87.2553 9.94375L87.5153 10.0038C86.2553 12.8038 83.9753 14.3038 81.5753 14.3038C77.8953 14.3038 75.8753 11.1438 76.7953 6.90375C77.6153 3.10375 80.8553 0.34375 84.3753 0.34375C86.0353 0.34375 87.5153 0.74375 88.4553 1.52375L87.7953 4.06375H87.5153Z" fill="#50D2C1"/>
<path d="M91.4761 14.2838C89.1361 14.2838 87.7361 12.3638 88.3161 9.42375C88.8561 6.66375 90.8561 4.76375 93.2561 4.76375C95.6561 4.76375 96.9561 6.68375 96.3761 9.62375C95.8361 12.3838 93.8761 14.2838 91.4761 14.2838ZM89.5361 9.52375C89.0161 12.2038 89.8361 13.7838 91.5161 13.7838C93.3161 13.7838 94.6361 12.2038 95.1561 9.52375C95.6761 6.82375 94.9161 5.26375 93.1761 5.26375C91.4361 5.26375 90.0761 6.82375 89.5361 9.52375Z" fill="#50D2C1"/>
<path d="M99.5116 7.42375C100.472 5.26375 102.152 4.28375 103.352 4.98375L102.952 6.10375C101.712 5.26375 99.7716 6.24375 99.1916 8.98375L98.4316 12.6838C98.2716 13.3638 98.7316 13.6638 100.052 13.7238L99.9916 14.0038H95.7516L95.8116 13.7238C96.7916 13.6038 97.2116 13.3238 97.3516 12.6838L98.6516 6.56375C98.7716 5.94375 98.5716 5.66375 97.9116 5.62375L97.6316 5.60375L97.6916 5.32375L100.092 4.76375L99.5116 7.42375Z" fill="#50D2C1"/>
<path d="M103.616 8.94375C102.996 11.7038 104.016 13.3838 105.976 13.3838C107.476 13.3838 108.696 12.4638 109.236 11.3638L109.476 11.4237C108.776 13.2438 107.236 14.2638 105.436 14.2638C103.236 14.2638 101.736 12.4438 102.416 9.26375C102.976 6.60375 104.916 4.76375 107.296 4.76375C109.616 4.76375 110.756 6.22375 109.956 8.68375H103.676L103.616 8.94375ZM103.836 8.18375H108.876C109.516 6.30375 108.696 5.26375 107.136 5.26375C105.636 5.26375 104.436 6.44375 103.836 8.18375Z" fill="#50D2C1"/>
</svg>
