<svg width="120" height="19" viewBox="0 0 120 19" fill="none" xmlns="http://www.w3.org/2000/svg">
<path d="M20.4523 7.53986C20.471 9.21862 20.1196 10.8228 19.4292 12.3554C18.4434 14.5378 16.0799 16.3222 13.9218 14.4228C12.1616 12.8746 11.8351 9.73157 9.19798 9.27147C5.7088 8.84867 5.62483 12.8932 3.34536 13.3502C0.804661 13.8663 -0.0380915 9.59478 -0.000774032 7.65489C0.0365434 5.71499 0.552769 2.98857 2.76072 2.98857C5.30142 2.98857 5.47245 6.83416 8.69731 6.62587C11.8911 6.40825 11.947 2.40722 14.0337 0.694265C15.8343 -0.785528 17.952 0.299446 19.0125 2.08079C19.9952 3.72846 20.4274 5.66214 20.4492 7.53986H20.4523Z" fill="#072723"/>
<path d="M30.0352 14.1035V1.12109H31.2666V6.7356H38.8607V1.12109H40.0736V14.1035H38.8607V7.78016H31.2666V14.1035H30.0352Z" fill="#072723"/>
<path d="M43.2892 18.0406L44.9685 13.8623L41.3301 5.13281H42.5989L44.9872 11.0458C45.124 11.4064 45.3168 11.8851 45.5656 12.482C45.6029 12.395 45.6402 12.2986 45.6776 12.1929C45.7149 12.0872 45.7522 11.9908 45.7895 11.9038C45.8642 11.7421 45.9295 11.5898 45.9854 11.4468C46.0414 11.3038 46.0943 11.1639 46.144 11.0271L48.3831 5.13281H49.5959L44.5021 18.0406H43.2892Z" fill="#072723"/>
<path d="M50.8262 18.04V5.13223H51.983V6.77368C52.2816 6.2141 52.7138 5.7571 53.2798 5.4027C53.8458 5.0483 54.4771 4.87109 55.1737 4.87109C56.0071 4.87109 56.7317 5.07317 57.3474 5.47731C57.9631 5.88146 58.4358 6.44104 58.7655 7.15607C59.0951 7.87109 59.2599 8.68249 59.2599 9.59026C59.2599 10.498 59.0889 11.3312 58.7468 12.0524C58.4047 12.7737 57.9227 13.3395 57.3007 13.7498C56.6788 14.1602 55.9698 14.3654 55.1737 14.3654C54.5019 14.3654 53.8831 14.2037 53.3171 13.8804C52.7511 13.5571 52.3064 13.0846 51.983 12.4628V18.04H50.8262ZM55.0057 13.4328C55.6152 13.4328 56.1532 13.2711 56.6197 12.9478C57.0862 12.6245 57.4438 12.1737 57.6926 11.5954C57.9414 11.0172 58.0658 10.3488 58.0658 9.59026C58.0658 8.83172 57.9383 8.20374 57.6833 7.63172C57.4283 7.05969 57.0706 6.61514 56.6104 6.29804C56.1501 5.98094 55.6152 5.82239 55.0057 5.82239C54.3962 5.82239 53.8769 5.97783 53.4104 6.28871C52.9439 6.59959 52.5801 7.04104 52.3189 7.61306C52.0576 8.18508 51.927 8.84415 51.927 9.59026C51.927 10.3364 52.0576 11.0172 52.3189 11.5954C52.5801 12.1737 52.9408 12.6245 53.4011 12.9478C53.8613 13.2711 54.3962 13.4328 55.0057 13.4328Z" fill="#072723"/>
<path d="M64.7835 14.3654C63.9376 14.3654 63.1944 14.1789 62.5538 13.8058C61.9132 13.4328 61.4156 12.8856 61.0611 12.1644C60.7066 11.4431 60.5293 10.5789 60.5293 9.57161C60.5293 8.67628 60.7128 7.87109 61.0797 7.15607C61.4467 6.44104 61.9474 5.88146 62.5818 5.47731C63.2162 5.07317 63.9252 4.87109 64.7089 4.87109C65.5547 4.87109 66.2762 5.06384 66.8733 5.44933C67.4703 5.83482 67.9244 6.37887 68.2354 7.08146C68.5463 7.78405 68.7018 8.60166 68.7018 9.53431V9.77679H61.6861C61.6861 10.5478 61.8167 11.2068 62.078 11.754C62.3392 12.3011 62.7062 12.7177 63.1788 13.0037C63.6515 13.2897 64.1926 13.4328 64.8021 13.4328C65.5236 13.4328 66.1238 13.2618 66.6027 12.9198C67.0816 12.5778 67.3771 12.0649 67.489 11.3809H68.6458C68.5588 11.953 68.3566 12.4628 68.0394 12.9105C67.7222 13.3581 67.2869 13.7125 66.7333 13.9737C66.1798 14.2348 65.5298 14.3654 64.7835 14.3654ZM67.4703 8.90011C67.4579 7.96747 67.2091 7.22135 66.724 6.66177C66.2389 6.10218 65.5672 5.82239 64.7089 5.82239C63.8506 5.82239 63.1882 6.11151 62.6471 6.68975C62.106 7.26798 61.7981 8.00477 61.7235 8.90011H67.4703Z" fill="#072723"/>
<path d="M70.4902 14.1043V5.13223H71.6471V6.92291C71.8959 6.32602 72.2846 5.83482 72.8132 5.44933C73.3419 5.06384 73.9608 4.87109 74.6698 4.87109C74.8439 4.87109 75.0119 4.88353 75.1736 4.9084V6.02757C74.9621 6.0027 74.7755 5.99026 74.6138 5.99026C74.0167 5.99026 73.4943 6.12394 73.0465 6.3913C72.5987 6.65866 72.2535 7.04104 72.0109 7.53845C71.7684 8.03586 71.6471 8.6141 71.6471 9.27317V14.1043H70.4902Z" fill="#072723"/>
<path d="M86.1737 0.718124C86.7204 0.718124 87.3404 0.671458 88.0338 0.578125L87.8538 4.09812H87.5738C87.5338 3.11146 87.3404 2.39813 86.9938 1.95813C86.6471 1.50479 86.0271 1.27812 85.1338 1.27812H80.8938L79.6938 6.93812H83.1338C83.8138 6.93812 84.3071 6.79812 84.6138 6.51812C84.9338 6.22479 85.1804 5.73812 85.3538 5.05812H85.6337L84.7138 9.35812H84.4338C84.4871 9.01146 84.5138 8.77146 84.5138 8.63812C84.5138 8.25146 84.4004 7.96479 84.1737 7.77812C83.9471 7.59146 83.5604 7.49812 83.0138 7.49812H79.5738L78.5738 12.1781C78.5338 12.3781 78.5138 12.5581 78.5138 12.7181C78.5138 12.9981 78.5871 13.2048 78.7338 13.3381C78.8804 13.4581 79.1138 13.5181 79.4338 13.5181H82.7738C83.6671 13.5181 84.3804 13.2981 84.9138 12.8581C85.4471 12.4181 85.9471 11.6981 86.4138 10.6981H86.6938L85.3738 14.2181C84.7471 14.1248 84.1471 14.0781 83.5738 14.0781H75.0938L75.1538 13.7981C75.8071 13.7715 76.2938 13.6515 76.6138 13.4381C76.9471 13.2248 77.1804 12.8048 77.3138 12.1781L79.3538 2.59813C79.3938 2.37146 79.4138 2.18479 79.4138 2.03812C79.4138 1.65146 79.2871 1.39146 79.0338 1.25812C78.7938 1.11146 78.4071 1.02479 77.8738 0.998124L77.9338 0.718124H86.1737Z" fill="#072723"/>
<path d="M103.236 0.718124L103.176 0.998124C102.536 1.01146 102.023 1.15146 101.636 1.41812C101.263 1.68479 100.87 2.14479 100.456 2.79813L93.4164 14.3781H93.1364L90.9764 2.81812C90.8564 2.16479 90.6697 1.70479 90.4164 1.43812C90.1631 1.17146 89.7564 1.02479 89.1964 0.998124L89.2564 0.718124H93.8764L93.8164 0.998124C92.7231 1.03812 92.1764 1.45146 92.1764 2.23813C92.1764 2.38479 92.1964 2.55146 92.2364 2.73812L93.9964 12.4181L99.8564 2.77813C100.123 2.32479 100.256 1.97146 100.256 1.71812C100.256 1.47812 100.143 1.30479 99.9164 1.19812C99.7031 1.07812 99.3631 1.01146 98.8964 0.998124L98.9564 0.718124H103.236Z" fill="#072723"/>
<path d="M119.743 0.998124C119.103 1.01146 118.616 1.12479 118.283 1.33812C117.95 1.55146 117.73 1.92479 117.623 2.45812L115.503 12.3981C115.463 12.5581 115.443 12.7048 115.443 12.8381C115.443 13.1581 115.563 13.3915 115.803 13.5381C116.056 13.6715 116.463 13.7581 117.023 13.7981L116.963 14.0781H112.083L112.143 13.7981C112.81 13.7448 113.296 13.6248 113.603 13.4381C113.923 13.2381 114.136 12.8915 114.243 12.3981L116.323 2.57812L108.303 14.3781H108.023L105.203 2.57812L103.123 12.3981C103.083 12.5715 103.063 12.7248 103.063 12.8581C103.063 13.1781 103.183 13.4048 103.423 13.5381C103.663 13.6715 104.05 13.7581 104.583 13.7981L104.523 14.0781H100.403L100.463 13.7981C101.13 13.7448 101.616 13.6248 101.923 13.4381C102.23 13.2381 102.443 12.8915 102.563 12.3981L104.663 2.45812C104.703 2.27146 104.723 2.11146 104.723 1.97812C104.723 1.63146 104.596 1.39146 104.343 1.25812C104.103 1.11146 103.716 1.02479 103.183 0.998124L103.243 0.718124H106.023L108.843 12.5581L116.923 0.718124H119.803L119.743 0.998124Z" fill="#072723"/>
</svg>
