<svg width="120" height="19" viewBox="0 0 120 19" fill="none" xmlns="http://www.w3.org/2000/svg">
<path d="M20.4543 7.53986C20.4729 9.21862 20.1215 10.8228 19.4311 12.3554C18.4453 14.5378 16.0819 16.3222 13.9237 14.4228C12.1636 12.8746 11.837 9.73157 9.19993 9.27147C5.71075 8.84867 5.62679 12.8932 3.34731 13.3502C0.806615 13.8663 -0.0361384 9.59478 0.00117909 7.65489C0.0384966 5.71499 0.554722 2.98857 2.76267 2.98857C5.30337 2.98857 5.47441 6.83416 8.69926 6.62587C11.893 6.40825 11.949 2.40722 14.0357 0.694265C15.8362 -0.785528 17.954 0.299446 19.0144 2.08079C19.9971 3.72846 20.4294 5.66214 20.4512 7.53986H20.4543Z" fill="white"/>
<path d="M30.0371 14.1035V1.12109H31.2686V6.7356H38.8627V1.12109H40.0755V14.1035H38.8627V7.78016H31.2686V14.1035H30.0371Z" fill="white"/>
<path d="M43.2912 18.0406L44.9705 13.8623L41.332 5.13281H42.6008L44.9891 11.0458C45.126 11.4064 45.3188 11.8851 45.5676 12.482C45.6049 12.395 45.6422 12.2986 45.6795 12.1929C45.7168 12.0872 45.7542 11.9908 45.7915 11.9038C45.8661 11.7421 45.9314 11.5898 45.9874 11.4468C46.0434 11.3038 46.0962 11.1639 46.146 11.0271L48.385 5.13281H49.5979L44.504 18.0406H43.2912Z" fill="white"/>
<path d="M50.8281 18.04V5.13223H51.985V6.77368C52.2835 6.2141 52.7158 5.7571 53.2817 5.4027C53.8477 5.0483 54.479 4.87109 55.1756 4.87109C56.009 4.87109 56.7336 5.07317 57.3494 5.47731C57.9651 5.88146 58.4378 6.44104 58.7674 7.15607C59.0971 7.87109 59.2619 8.68249 59.2619 9.59026C59.2619 10.498 59.0908 11.3312 58.7488 12.0524C58.4067 12.7737 57.9247 13.3395 57.3027 13.7498C56.6807 14.1602 55.9717 14.3654 55.1756 14.3654C54.5039 14.3654 53.885 14.2037 53.3191 13.8804C52.7531 13.5571 52.3084 13.0846 51.985 12.4628V18.04H50.8281ZM55.0077 13.4328C55.6172 13.4328 56.1552 13.2711 56.6217 12.9478C57.0881 12.6245 57.4458 12.1737 57.6945 11.5954C57.9433 11.0172 58.0677 10.3488 58.0677 9.59026C58.0677 8.83172 57.9402 8.20374 57.6852 7.63172C57.4302 7.05969 57.0726 6.61514 56.6123 6.29804C56.1521 5.98094 55.6172 5.82239 55.0077 5.82239C54.3982 5.82239 53.8788 5.97783 53.4124 6.28871C52.9459 6.59959 52.582 7.04104 52.3208 7.61306C52.0596 8.18508 51.929 8.84415 51.929 9.59026C51.929 10.3364 52.0596 11.0172 52.3208 11.5954C52.582 12.1737 52.9428 12.6245 53.403 12.9478C53.8633 13.2711 54.3982 13.4328 55.0077 13.4328Z" fill="white"/>
<path d="M64.7854 14.3654C63.9396 14.3654 63.1963 14.1789 62.5557 13.8058C61.9151 13.4328 61.4175 12.8856 61.063 12.1644C60.7085 11.4431 60.5312 10.5789 60.5312 9.57161C60.5312 8.67628 60.7147 7.87109 61.0817 7.15607C61.4486 6.44104 61.9493 5.88146 62.5837 5.47731C63.2181 5.07317 63.9271 4.87109 64.7108 4.87109C65.5567 4.87109 66.2781 5.06384 66.8752 5.44933C67.4723 5.83482 67.9263 6.37887 68.2373 7.08146C68.5483 7.78405 68.7038 8.60166 68.7038 9.53431V9.77679H61.6881C61.6881 10.5478 61.8187 11.2068 62.0799 11.754C62.3411 12.3011 62.7081 12.7177 63.1808 13.0037C63.6535 13.2897 64.1946 13.4328 64.8041 13.4328C65.5256 13.4328 66.1258 13.2618 66.6047 12.9198C67.0836 12.5778 67.379 12.0649 67.491 11.3809H68.6478C68.5607 11.953 68.3586 12.4628 68.0414 12.9105C67.7242 13.3581 67.2888 13.7125 66.7353 13.9737C66.1817 14.2348 65.5318 14.3654 64.7854 14.3654ZM67.4723 8.90011C67.4599 7.96747 67.2111 7.22135 66.7259 6.66177C66.2408 6.10218 65.5691 5.82239 64.7108 5.82239C63.8525 5.82239 63.1901 6.11151 62.649 6.68975C62.1079 7.26798 61.8 8.00477 61.7254 8.90011H67.4723Z" fill="white"/>
<path d="M70.4922 14.1043V5.13223H71.649V6.92291C71.8978 6.32602 72.2865 5.83482 72.8152 5.44933C73.3439 5.06384 73.9627 4.87109 74.6717 4.87109C74.8459 4.87109 75.0138 4.88353 75.1755 4.9084V6.02757C74.9641 6.0027 74.7775 5.99026 74.6158 5.99026C74.0187 5.99026 73.4962 6.12394 73.0484 6.3913C72.6006 6.65866 72.2554 7.04104 72.0129 7.53845C71.7703 8.03586 71.649 8.6141 71.649 9.27317V14.1043H70.4922Z" fill="white"/>
<path d="M86.1757 0.718124C86.7224 0.718124 87.3424 0.671458 88.0357 0.578125L87.8557 4.09812H87.5757C87.5357 3.11146 87.3424 2.39813 86.9957 1.95813C86.649 1.50479 86.029 1.27812 85.1357 1.27812H80.8957L79.6957 6.93812H83.1357C83.8157 6.93812 84.309 6.79812 84.6157 6.51812C84.9357 6.22479 85.1824 5.73812 85.3557 5.05812H85.6357L84.7157 9.35812H84.4357C84.489 9.01146 84.5157 8.77146 84.5157 8.63812C84.5157 8.25146 84.4024 7.96479 84.1757 7.77812C83.949 7.59146 83.5624 7.49812 83.0157 7.49812H79.5757L78.5757 12.1781C78.5357 12.3781 78.5157 12.5581 78.5157 12.7181C78.5157 12.9981 78.589 13.2048 78.7357 13.3381C78.8824 13.4581 79.1157 13.5181 79.4357 13.5181H82.7757C83.669 13.5181 84.3824 13.2981 84.9157 12.8581C85.449 12.4181 85.949 11.6981 86.4157 10.6981H86.6957L85.3757 14.2181C84.749 14.1248 84.149 14.0781 83.5757 14.0781H75.0957L75.1557 13.7981C75.809 13.7715 76.2957 13.6515 76.6157 13.4381C76.949 13.2248 77.1824 12.8048 77.3157 12.1781L79.3557 2.59813C79.3957 2.37146 79.4157 2.18479 79.4157 2.03812C79.4157 1.65146 79.289 1.39146 79.0357 1.25812C78.7957 1.11146 78.409 1.02479 77.8757 0.998124L77.9357 0.718124H86.1757Z" fill="white"/>
<path d="M103.238 0.718124L103.178 0.998124C102.538 1.01146 102.025 1.15146 101.638 1.41812C101.265 1.68479 100.872 2.14479 100.458 2.79813L93.4184 14.3781H93.1384L90.9784 2.81812C90.8584 2.16479 90.6717 1.70479 90.4184 1.43812C90.165 1.17146 89.7584 1.02479 89.1984 0.998124L89.2584 0.718124H93.8784L93.8184 0.998124C92.725 1.03812 92.1784 1.45146 92.1784 2.23813C92.1784 2.38479 92.1984 2.55146 92.2384 2.73812L93.9984 12.4181L99.8584 2.77813C100.125 2.32479 100.258 1.97146 100.258 1.71812C100.258 1.47812 100.145 1.30479 99.9184 1.19812C99.705 1.07812 99.365 1.01146 98.8984 0.998124L98.9584 0.718124H103.238Z" fill="white"/>
<path d="M119.745 0.998124C119.105 1.01146 118.618 1.12479 118.285 1.33812C117.952 1.55146 117.732 1.92479 117.625 2.45812L115.505 12.3981C115.465 12.5581 115.445 12.7048 115.445 12.8381C115.445 13.1581 115.565 13.3915 115.805 13.5381C116.058 13.6715 116.465 13.7581 117.025 13.7981L116.965 14.0781H112.085L112.145 13.7981C112.812 13.7448 113.298 13.6248 113.605 13.4381C113.925 13.2381 114.138 12.8915 114.245 12.3981L116.325 2.57812L108.305 14.3781H108.025L105.205 2.57812L103.125 12.3981C103.085 12.5715 103.065 12.7248 103.065 12.8581C103.065 13.1781 103.185 13.4048 103.425 13.5381C103.665 13.6715 104.052 13.7581 104.585 13.7981L104.525 14.0781H100.405L100.465 13.7981C101.132 13.7448 101.618 13.6248 101.925 13.4381C102.232 13.2381 102.445 12.8915 102.565 12.3981L104.665 2.45812C104.705 2.27146 104.725 2.11146 104.725 1.97812C104.725 1.63146 104.598 1.39146 104.345 1.25812C104.105 1.11146 103.718 1.02479 103.185 0.998124L103.245 0.718124H106.025L108.845 12.5581L116.925 0.718124H119.805L119.745 0.998124Z" fill="white"/>
</svg>
