<svg width="135" height="24" viewBox="0 0 135 24" fill="none" xmlns="http://www.w3.org/2000/svg">
<path fill-rule="evenodd" clip-rule="evenodd" d="M12.0814 23.9997C9.76322 23.9997 7.83541 23.2992 6.29531 21.5158C5.65359 20.7725 5.0814 19.9623 4.55734 19.1308L4.54664 19.1147L0.696375 12.5452C0.525252 12.2538 0.378194 11.9489 0.265894 11.6281C0.0707071 11.0532 0.00386215 10.5826 0.00118835 9.97569C-0.00148544 8.30456 0.00118835 6.63076 0.00118835 4.95964C0.00118835 4.00242 -0.0228758 3.24841 0.410279 2.36606C1.18301 0.788519 2.8568 0.0371825 4.55199 0.0157921C7.05734 -0.0162934 9.57873 0.0104445 12.0814 0.0104445C14.5841 0.0104445 17.1081 -0.0162934 19.6108 0.0157921C21.306 0.0371825 22.9771 0.788519 23.7499 2.36606C24.183 3.25109 24.1563 4.0051 24.1589 4.95964C24.1589 6.63076 24.1616 8.30456 24.1589 9.97569C24.1589 10.5826 24.0921 11.0532 23.8942 11.6281C23.7846 11.9489 23.6376 12.2511 23.4638 12.5452L19.6108 19.1147L19.6001 19.1308C19.0761 19.9623 18.5039 20.7725 17.8622 21.5158C16.3247 23.2992 14.3942 23.9997 12.0761 23.9997H12.0814Z" fill="#FF3466"/>
<path fill-rule="evenodd" clip-rule="evenodd" d="M12.0601 22.8422C10.1002 22.8396 8.48789 22.2861 7.17238 20.7593C6.62693 20.1283 6.08415 19.3797 5.53869 18.5134L1.69645 11.9572C1.55741 11.7219 1.45046 11.492 1.36222 11.2486C1.20714 10.7941 1.16169 10.4759 1.16169 9.97057C1.16169 8.55613 1.16169 6.88501 1.16169 4.9572C1.16169 4.06148 1.13495 3.51603 1.45313 2.87164C2.02532 1.70052 3.31142 1.18448 4.5681 1.16843C4.83281 1.16576 7.43709 1.16309 12.0628 1.16309C16.6884 1.16309 19.2927 1.16309 19.5574 1.16843C20.8168 1.18448 22.1002 1.70052 22.6724 2.87164C22.9879 3.51603 22.9612 4.06416 22.9638 4.9572C22.9638 6.88501 22.9665 8.55613 22.9638 9.97057C22.9638 10.4759 22.9157 10.7941 22.7633 11.2486C22.6777 11.492 22.5681 11.7219 22.4291 11.9572L18.5868 18.5134C18.0414 19.3797 17.4986 20.1283 16.9531 20.7593C15.6376 22.2861 14.0253 22.8369 12.0654 22.8422H12.0601ZM12.0601 2.62298H4.10554C3.36757 2.62298 2.76864 3.21924 2.76864 3.95988V9.89303C2.76864 10.516 2.91837 11.0508 3.2419 11.5855L4.53334 13.7166L7.54137 18.6818C8.45313 20.1257 10.1029 21.1257 12.0601 21.1203C14.0173 21.1257 15.667 20.1283 16.5788 18.6818L19.5868 13.7166L20.8783 11.5855C21.2018 11.0535 21.3515 10.5187 21.3515 9.89303V3.95988C21.3515 3.22191 20.7526 2.62298 20.0146 2.62298H12.0601Z" fill="#FFF4E1"/>
<path fill-rule="evenodd" clip-rule="evenodd" d="M21.3514 9.88994V3.95946C21.3514 3.22149 20.7525 2.62256 20.0145 2.62256H4.10545C3.36749 2.62256 2.76855 3.21882 2.76855 3.95946V9.89261C2.76855 10.5156 2.91829 11.0504 3.24182 11.5851L4.53326 13.7161L7.54128 18.6814C8.45305 20.1252 10.1028 21.1252 12.06 21.1199C14.0172 21.1252 15.667 20.1279 16.5787 18.6814L19.5867 13.7161L20.8782 11.5851C21.2017 11.053 21.3514 10.5183 21.3514 9.89261V9.88994Z" fill="#371853"/>
<path fill-rule="evenodd" clip-rule="evenodd" d="M13.5976 10.6924C14.9692 10.1336 16.2874 9.4651 17.3783 8.31804C17.4639 8.19505 17.4772 7.99184 17.4077 7.87419L17.2312 7.58008L17.0521 7.28061C16.9826 7.16296 16.8516 7.16831 16.766 7.29131C15.7259 8.38489 14.4772 9.04264 13.1751 9.58542C13.75 8.22179 14.2072 6.81804 14.1671 5.23783C14.143 5.09344 14.0093 4.93034 13.8703 4.90361L13.5334 4.81804L13.1965 4.73248C13.0681 4.7004 12.9746 4.79131 12.9959 4.94906C13.0334 6.46243 12.6163 7.8127 12.0762 9.12018C11.5173 7.74852 10.8489 6.42767 9.70183 5.33409C9.57884 5.24853 9.37563 5.23516 9.25798 5.30467L8.96119 5.48115L8.6644 5.65762C8.54675 5.72713 8.5521 5.85815 8.67509 5.94371C9.76868 6.98382 10.4264 8.23248 10.9692 9.53462C9.60558 8.95975 8.20183 8.50254 6.62162 8.54264C6.47723 8.56671 6.31413 8.7004 6.28739 8.83943L6.20183 9.17633L6.11627 9.51323C6.08419 9.64157 6.17509 9.73516 6.33285 9.71377C7.8382 9.67633 9.18579 10.0908 10.4906 10.6282C9.12162 11.187 7.80611 11.8555 6.7152 12.9999C6.62964 13.1229 6.61627 13.3261 6.68579 13.4437L6.86226 13.7405L7.03873 14.0373C7.10825 14.1549 7.23927 14.1496 7.32483 14.0266C8.36761 12.9303 9.62162 12.2699 10.9291 11.7245C10.3516 13.0934 9.889 14.5025 9.92911 16.0854C9.95852 16.2378 10.0976 16.3876 10.2259 16.4196L10.5628 16.5052L10.9024 16.5908C11.0307 16.6229 11.1243 16.5319 11.1029 16.3742C11.0681 14.8688 11.4826 13.5239 12.02 12.2191C12.5788 13.5854 13.2473 14.9009 14.3917 15.9918C14.5147 16.0774 14.7179 16.0908 14.8355 16.0213L15.1323 15.8448L15.4291 15.6683C15.5468 15.5988 15.5414 15.4678 15.4184 15.3822C14.3222 14.3394 13.6617 13.0854 13.1163 11.7779C14.4853 12.3555 15.8943 12.818 17.4772 12.7779C17.6216 12.7539 17.7794 12.6095 17.8115 12.4811L17.897 12.1442L17.9826 11.8073C18.0147 11.679 17.9238 11.5854 17.766 11.6068C16.2553 11.6416 14.905 11.2218 13.5976 10.6844V10.6924Z" fill="#FFF4E1"/>
<path d="M40.4611 19L36.6827 5.18182H38.3829L41.2707 16.4361H41.4057L44.3474 5.18182H46.2366L49.1784 16.4361H49.3133L52.2011 5.18182H53.9014L50.123 19H48.3957L45.346 7.98864H45.2381L42.1883 19H40.4611ZM55.7704 19V8.63636H57.3627V19H55.7704ZM56.58 6.90909C56.2697 6.90909 56.002 6.80339 55.7771 6.59197C55.5567 6.38056 55.4465 6.12642 55.4465 5.82955C55.4465 5.53267 55.5567 5.27853 55.7771 5.06712C56.002 4.85571 56.2697 4.75 56.58 4.75C56.8904 4.75 57.1558 4.85571 57.3762 5.06712C57.6011 5.27853 57.7136 5.53267 57.7136 5.82955C57.7136 6.12642 57.6011 6.38056 57.3762 6.59197C57.1558 6.80339 56.8904 6.90909 56.58 6.90909ZM61.8715 12.7656V19H60.2792V8.63636H61.8175V10.2557H61.9525C62.1954 9.7294 62.5642 9.30658 63.059 8.98722C63.5538 8.66335 64.1925 8.50142 64.9752 8.50142C65.6769 8.50142 66.2909 8.64536 66.8172 8.93324C67.3434 9.21662 67.7528 9.64844 68.0451 10.2287C68.3375 10.8045 68.4837 11.5331 68.4837 12.4148V19H66.8914V12.5227C66.8914 11.7086 66.68 11.0743 66.2571 10.62C65.8343 10.1612 65.2541 9.93182 64.5164 9.93182C64.0081 9.93182 63.5538 10.042 63.1535 10.2624C62.7576 10.4828 62.445 10.8045 62.2156 11.2273C61.9862 11.6501 61.8715 12.1629 61.8715 12.7656ZM75.9005 8.63636V9.98579H70.5298V8.63636H75.9005ZM72.0951 6.15341H73.6875V16.0312C73.6875 16.4811 73.7527 16.8184 73.8831 17.0433C74.0181 17.2637 74.189 17.4122 74.3959 17.4886C74.6073 17.5606 74.83 17.5966 75.0639 17.5966C75.2393 17.5966 75.3832 17.5876 75.4957 17.5696C75.6081 17.5471 75.6981 17.5291 75.7656 17.5156L76.0894 18.946C75.9815 18.9865 75.8308 19.027 75.6374 19.0675C75.444 19.1125 75.1988 19.1349 74.9019 19.1349C74.4521 19.1349 74.0113 19.0382 73.5795 18.8448C73.1522 18.6514 72.7968 18.3568 72.5134 17.9609C72.2346 17.5651 72.0951 17.0658 72.0951 16.4631V6.15341ZM82.5296 19.2159C81.531 19.2159 80.6696 18.9955 79.9454 18.5547C79.2257 18.1094 78.6702 17.4886 78.2789 16.6925C77.8921 15.8918 77.6986 14.9607 77.6986 13.8991C77.6986 12.8376 77.8921 11.902 78.2789 11.0923C78.6702 10.2782 79.2145 9.64394 79.9117 9.18963C80.6134 8.73082 81.4321 8.50142 82.3677 8.50142C82.9074 8.50142 83.4405 8.59138 83.9668 8.77131C84.493 8.95123 84.9721 9.24361 85.4039 9.64844C85.8357 10.0488 86.1798 10.5795 86.4362 11.2408C86.6926 11.902 86.8208 12.7161 86.8208 13.6832V14.358H78.8322V12.9815H85.2015C85.2015 12.3968 85.0845 11.875 84.8506 11.4162C84.6212 10.9574 84.2929 10.5953 83.8655 10.3299C83.4427 10.0645 82.9434 9.93182 82.3677 9.93182C81.7334 9.93182 81.1847 10.0893 80.7214 10.4041C80.2626 10.7145 79.9095 11.1193 79.6621 11.6186C79.4147 12.1179 79.291 12.6532 79.291 13.2244V14.142C79.291 14.9247 79.4259 15.5882 79.6958 16.1325C79.9702 16.6722 80.3503 17.0838 80.8361 17.3672C81.3219 17.6461 81.8864 17.7855 82.5296 17.7855C82.9479 17.7855 83.3258 17.727 83.6631 17.6101C84.005 17.4886 84.2996 17.3087 84.547 17.0703C84.7944 16.8274 84.9856 16.526 85.1205 16.1662L86.6589 16.598C86.4969 17.1198 86.2248 17.5786 85.8425 17.9744C85.4601 18.3658 84.9878 18.6716 84.4256 18.892C83.8633 19.108 83.2313 19.2159 82.5296 19.2159ZM89.243 19V8.63636H90.7814V10.2017H90.8893C91.0783 9.68892 91.4201 9.27285 91.9149 8.95348C92.4097 8.63411 92.9675 8.47443 93.5882 8.47443C93.7052 8.47443 93.8513 8.47668 94.0268 8.48118C94.2022 8.48568 94.3349 8.49242 94.4248 8.50142V10.1207C94.3709 10.1072 94.2472 10.087 94.0538 10.06C93.8648 10.0285 93.6647 10.0128 93.4533 10.0128C92.9495 10.0128 92.4997 10.1185 92.1038 10.3299C91.7125 10.5368 91.4021 10.8247 91.1727 11.1935C90.9478 11.5579 90.8354 11.974 90.8354 12.4418V19H89.243ZM100.207 19.2159C99.2356 19.2159 98.3989 18.9865 97.6972 18.5277C96.9955 18.0689 96.4557 17.4369 96.0779 16.6317C95.7001 15.8266 95.5111 14.9067 95.5111 13.8722C95.5111 12.8196 95.7046 11.8907 96.0914 11.0856C96.4827 10.2759 97.027 9.64394 97.7242 9.18963C98.4259 8.73082 99.2446 8.50142 100.18 8.50142C100.909 8.50142 101.566 8.63636 102.15 8.90625C102.735 9.17614 103.214 9.55398 103.587 10.0398C103.961 10.5256 104.192 11.0923 104.282 11.7401H102.69C102.569 11.2678 102.299 10.8494 101.88 10.4851C101.467 10.1162 100.909 9.93182 100.207 9.93182C99.5864 9.93182 99.0422 10.0937 98.5744 10.4176C98.111 10.737 97.7489 11.189 97.4881 11.7738C97.2317 12.354 97.1035 13.0355 97.1035 13.8182C97.1035 14.6188 97.2294 15.3161 97.4813 15.9098C97.7377 16.5036 98.0976 16.9646 98.5609 17.293C99.0287 17.6213 99.5774 17.7855 100.207 17.7855C100.621 17.7855 100.997 17.7135 101.334 17.5696C101.671 17.4257 101.957 17.2188 102.191 16.9489C102.425 16.679 102.591 16.3551 102.69 15.9773H104.282C104.192 16.589 103.97 17.14 103.614 17.6303C103.264 18.1161 102.798 18.503 102.218 18.7908C101.642 19.0742 100.972 19.2159 100.207 19.2159ZM113.141 14.7628V8.63636H114.734V19H113.141V17.2457H113.034C112.791 17.772 112.413 18.2196 111.9 18.5884C111.387 18.9528 110.739 19.1349 109.957 19.1349C109.309 19.1349 108.733 18.9933 108.23 18.7099C107.726 18.422 107.33 17.9902 107.042 17.4144C106.754 16.8342 106.61 16.1032 106.61 15.2216V8.63636H108.203V15.1136C108.203 15.8693 108.414 16.4721 108.837 16.9219C109.264 17.3717 109.808 17.5966 110.47 17.5966C110.865 17.5966 111.268 17.4954 111.677 17.293C112.091 17.0906 112.438 16.7802 112.716 16.3619C113 15.9435 113.141 15.4105 113.141 14.7628ZM122.157 8.63636V9.98579H116.787V8.63636H122.157ZM118.352 6.15341H119.944V16.0312C119.944 16.4811 120.01 16.8184 120.14 17.0433C120.275 17.2637 120.446 17.4122 120.653 17.4886C120.864 17.5606 121.087 17.5966 121.321 17.5966C121.496 17.5966 121.64 17.5876 121.753 17.5696C121.865 17.5471 121.955 17.5291 122.022 17.5156L122.346 18.946C122.238 18.9865 122.088 19.027 121.894 19.0675C121.701 19.1125 121.456 19.1349 121.159 19.1349C120.709 19.1349 120.268 19.0382 119.836 18.8448C119.409 18.6514 119.054 18.3568 118.77 17.9609C118.491 17.5651 118.352 17.0658 118.352 16.4631V6.15341ZM128.786 19.2159C127.788 19.2159 126.926 18.9955 126.202 18.5547C125.483 18.1094 124.927 17.4886 124.536 16.6925C124.149 15.8918 123.955 14.9607 123.955 13.8991C123.955 12.8376 124.149 11.902 124.536 11.0923C124.927 10.2782 125.471 9.64394 126.169 9.18963C126.87 8.73082 127.689 8.50142 128.625 8.50142C129.164 8.50142 129.697 8.59138 130.224 8.77131C130.75 8.95123 131.229 9.24361 131.661 9.64844C132.093 10.0488 132.437 10.5795 132.693 11.2408C132.949 11.902 133.078 12.7161 133.078 13.6832V14.358H125.089V12.9815H131.458C131.458 12.3968 131.341 11.875 131.107 11.4162C130.878 10.9574 130.55 10.5953 130.122 10.3299C129.7 10.0645 129.2 9.93182 128.625 9.93182C127.99 9.93182 127.442 10.0893 126.978 10.4041C126.519 10.7145 126.166 11.1193 125.919 11.6186C125.672 12.1179 125.548 12.6532 125.548 13.2244V14.142C125.548 14.9247 125.683 15.5882 125.953 16.1325C126.227 16.6722 126.607 17.0838 127.093 17.3672C127.579 17.6461 128.143 17.7855 128.786 17.7855C129.205 17.7855 129.583 17.727 129.92 17.6101C130.262 17.4886 130.556 17.3087 130.804 17.0703C131.051 16.8274 131.242 16.526 131.377 16.1662L132.916 16.598C132.754 17.1198 132.482 17.5786 132.099 17.9744C131.717 18.3658 131.245 18.6716 130.682 18.892C130.12 19.108 129.488 19.2159 128.786 19.2159Z" fill="#FFF4E1"/>
</svg>
