<svg width="161" height="24" viewBox="0 0 161 24" fill="none" xmlns="http://www.w3.org/2000/svg">
<path fill-rule="evenodd" clip-rule="evenodd" d="M12.0814 23.9997C9.76322 23.9997 7.83541 23.2992 6.29531 21.5158C5.65359 20.7725 5.0814 19.9623 4.55734 19.1308L4.54664 19.1147L0.696375 12.5452C0.525252 12.2538 0.378194 11.9489 0.265894 11.6281C0.0707071 11.0532 0.00386215 10.5826 0.00118835 9.97568C-0.00148544 8.30456 0.00118835 6.63076 0.00118835 4.95964C0.00118835 4.00242 -0.0228758 3.24841 0.410279 2.36606C1.18301 0.788519 2.8568 0.0371825 4.55199 0.0157921C7.05734 -0.0162934 9.57873 0.0104445 12.0814 0.0104445C14.5841 0.0104445 17.1081 -0.0162934 19.6108 0.0157921C21.306 0.0371825 22.9771 0.788519 23.7499 2.36606C24.183 3.25109 24.1563 4.0051 24.1589 4.95964C24.1589 6.63076 24.1616 8.30456 24.1589 9.97568C24.1589 10.5826 24.0921 11.0532 23.8942 11.6281C23.7846 11.9489 23.6376 12.2511 23.4638 12.5452L19.6108 19.1147L19.6001 19.1308C19.0761 19.9623 18.5039 20.7725 17.8622 21.5158C16.3247 23.2992 14.3942 23.9997 12.0761 23.9997H12.0814Z" fill="#FF3466"/>
<path fill-rule="evenodd" clip-rule="evenodd" d="M12.0601 22.8422C10.1002 22.8396 8.48789 22.2861 7.17238 20.7593C6.62693 20.1283 6.08415 19.3797 5.53869 18.5134L1.69645 11.9572C1.55741 11.7219 1.45046 11.492 1.36222 11.2486C1.20714 10.7941 1.16169 10.4759 1.16169 9.97057C1.16169 8.55613 1.16169 6.88501 1.16169 4.9572C1.16169 4.06148 1.13495 3.51603 1.45313 2.87164C2.02532 1.70052 3.31142 1.18448 4.5681 1.16843C4.83281 1.16576 7.43709 1.16309 12.0628 1.16309C16.6884 1.16309 19.2927 1.16309 19.5574 1.16843C20.8168 1.18448 22.1002 1.70052 22.6724 2.87164C22.9879 3.51603 22.9612 4.06416 22.9638 4.9572C22.9638 6.88501 22.9665 8.55613 22.9638 9.97057C22.9638 10.4759 22.9157 10.7941 22.7633 11.2486C22.6777 11.492 22.5681 11.7219 22.4291 11.9572L18.5868 18.5134C18.0414 19.3797 17.4986 20.1283 16.9531 20.7593C15.6376 22.2861 14.0253 22.8369 12.0654 22.8422H12.0601ZM12.0601 2.62298H4.10554C3.36757 2.62298 2.76864 3.21924 2.76864 3.95988V9.89303C2.76864 10.516 2.91837 11.0508 3.2419 11.5855L4.53334 13.7166L7.54137 18.6818C8.45313 20.1257 10.1029 21.1257 12.0601 21.1203C14.0173 21.1257 15.667 20.1283 16.5788 18.6818L19.5868 13.7166L20.8783 11.5855C21.2018 11.0535 21.3515 10.5187 21.3515 9.89303V3.95988C21.3515 3.22191 20.7526 2.62298 20.0146 2.62298H12.0601Z" fill="#FFF4E1"/>
<path fill-rule="evenodd" clip-rule="evenodd" d="M21.3514 9.88994V3.95946C21.3514 3.22149 20.7525 2.62256 20.0145 2.62256H4.10545C3.36749 2.62256 2.76855 3.21882 2.76855 3.95946V9.89261C2.76855 10.5156 2.91829 11.0504 3.24182 11.5851L4.53326 13.7161L7.54128 18.6814C8.45305 20.1252 10.1028 21.1252 12.06 21.1199C14.0172 21.1252 15.667 20.1279 16.5787 18.6814L19.5867 13.7161L20.8782 11.5851C21.2017 11.053 21.3514 10.5183 21.3514 9.89261V9.88994Z" fill="#371853"/>
<path fill-rule="evenodd" clip-rule="evenodd" d="M13.5976 10.6924C14.9692 10.1336 16.2874 9.4651 17.3783 8.31804C17.4639 8.19505 17.4772 7.99184 17.4077 7.87419L17.2312 7.58008L17.0521 7.28061C16.9826 7.16296 16.8516 7.16831 16.766 7.29131C15.7259 8.38489 14.4772 9.04264 13.1751 9.58542C13.75 8.22179 14.2072 6.81804 14.1671 5.23783C14.143 5.09344 14.0093 4.93034 13.8703 4.90361L13.5334 4.81804L13.1965 4.73248C13.0681 4.7004 12.9746 4.79131 12.9959 4.94906C13.0334 6.46243 12.6163 7.8127 12.0762 9.12018C11.5173 7.74852 10.8489 6.42767 9.70183 5.33409C9.57884 5.24853 9.37563 5.23516 9.25798 5.30467L8.96119 5.48115L8.6644 5.65762C8.54675 5.72713 8.5521 5.85815 8.67509 5.94371C9.76868 6.98382 10.4264 8.23248 10.9692 9.53462C9.60558 8.95975 8.20183 8.50254 6.62162 8.54264C6.47723 8.56671 6.31413 8.7004 6.28739 8.83943L6.20183 9.17633L6.11627 9.51323C6.08419 9.64157 6.17509 9.73516 6.33285 9.71377C7.8382 9.67633 9.18579 10.0908 10.4906 10.6282C9.12162 11.187 7.80611 11.8555 6.7152 12.9999C6.62964 13.1229 6.61627 13.3261 6.68579 13.4437L6.86226 13.7405L7.03873 14.0373C7.10825 14.1549 7.23927 14.1496 7.32483 14.0266C8.36761 12.9303 9.62162 12.2699 10.9291 11.7245C10.3516 13.0934 9.889 14.5025 9.92911 16.0854C9.95852 16.2378 10.0976 16.3876 10.2259 16.4196L10.5628 16.5052L10.9024 16.5908C11.0307 16.6229 11.1243 16.5319 11.1029 16.3742C11.0681 14.8688 11.4826 13.5239 12.02 12.2191C12.5788 13.5854 13.2473 14.9009 14.3917 15.9918C14.5147 16.0774 14.7179 16.0908 14.8355 16.0213L15.1323 15.8448L15.4291 15.6683C15.5468 15.5988 15.5414 15.4678 15.4184 15.3822C14.3222 14.3394 13.6617 13.0854 13.1163 11.7779C14.4853 12.3555 15.8943 12.818 17.4772 12.7779C17.6216 12.7539 17.7794 12.6095 17.8115 12.4811L17.897 12.1442L17.9826 11.8073C18.0147 11.679 17.9238 11.5854 17.766 11.6068C16.2553 11.6416 14.905 11.2218 13.5976 10.6844V10.6924Z" fill="#FFF4E1"/>
<path d="M38.0649 5.18182H40.0621L44.7581 16.652H44.92L49.616 5.18182H51.6132V19H50.0479V8.50142H49.9129L45.5947 19H44.0834L39.7652 8.50142H39.6302V19H38.0649V5.18182ZM57.802 19.2429C57.1453 19.2429 56.5493 19.1192 56.014 18.8718C55.4788 18.6199 55.0537 18.2578 54.7388 17.7855C54.4239 17.3087 54.2665 16.733 54.2665 16.0582C54.2665 15.4645 54.3835 14.9832 54.6174 14.6143C54.8513 14.241 55.1639 13.9486 55.5552 13.7372C55.9466 13.5258 56.3784 13.3684 56.8507 13.2649C57.3275 13.157 57.8065 13.0715 58.2878 13.0085C58.9176 12.9276 59.4281 12.8668 59.8194 12.8263C60.2153 12.7814 60.5031 12.7071 60.6831 12.6037C60.8675 12.5002 60.9597 12.3203 60.9597 12.0639V12.0099C60.9597 11.3442 60.7775 10.8269 60.4132 10.4581C60.0533 10.0893 59.5068 9.90483 58.7736 9.90483C58.0134 9.90483 57.4174 10.0713 56.9856 10.4041C56.5538 10.737 56.2502 11.0923 56.0748 11.4702L54.5634 10.9304C54.8333 10.3007 55.1931 9.81037 55.6429 9.45952C56.0972 9.10417 56.592 8.85677 57.1273 8.71733C57.6671 8.57339 58.1979 8.50142 58.7196 8.50142C59.0525 8.50142 59.4348 8.5419 59.8667 8.62287C60.303 8.69934 60.7235 8.85902 61.1284 9.10192C61.5377 9.34482 61.8773 9.71141 62.1472 10.2017C62.4171 10.692 62.552 11.3487 62.552 12.1719V19H60.9597V17.5966H60.8787C60.7708 17.8215 60.5909 18.0621 60.339 18.3185C60.0871 18.5749 59.752 18.7931 59.3336 18.973C58.9153 19.1529 58.4048 19.2429 57.802 19.2429ZM58.0449 17.8125C58.6747 17.8125 59.2054 17.6888 59.6373 17.4414C60.0736 17.194 60.4019 16.8746 60.6223 16.4833C60.8472 16.092 60.9597 15.6804 60.9597 15.2486V13.7912C60.8922 13.8722 60.7438 13.9464 60.5144 14.0138C60.2895 14.0768 60.0286 14.133 59.7317 14.1825C59.4393 14.2275 59.1537 14.268 58.8748 14.304C58.6004 14.3355 58.3778 14.3625 58.2069 14.3849C57.793 14.4389 57.4062 14.5266 57.0463 14.6481C56.691 14.765 56.4031 14.9427 56.1827 15.1811C55.9668 15.415 55.8588 15.7344 55.8588 16.1392C55.8588 16.6925 56.0635 17.1108 56.4728 17.3942C56.8867 17.6731 57.4107 17.8125 58.0449 17.8125ZM65.4584 19V8.63636H66.9967V10.2017H67.1047C67.2936 9.68892 67.6354 9.27285 68.1302 8.95348C68.625 8.63411 69.1828 8.47443 69.8035 8.47443C69.9205 8.47443 70.0667 8.47668 70.2421 8.48118C70.4175 8.48568 70.5502 8.49242 70.6402 8.50142V10.1207C70.5862 10.1072 70.4625 10.087 70.2691 10.06C70.0802 10.0285 69.88 10.0128 69.6686 10.0128C69.1648 10.0128 68.715 10.1185 68.3192 10.3299C67.9278 10.5368 67.6175 10.8247 67.3881 11.1935C67.1631 11.5579 67.0507 11.974 67.0507 12.4418V19H65.4584ZM74.0121 15.2216L73.9851 13.2514H74.3089L78.843 8.63636H80.8132L75.9822 13.5213H75.8473L74.0121 15.2216ZM72.5277 19V5.18182H74.12V19H72.5277ZM79.1129 19L75.0646 13.8722L76.1982 12.7656L81.1371 19H79.1129ZM86.7811 19.2159C85.7825 19.2159 84.9211 18.9955 84.1969 18.5547C83.4772 18.1094 82.9217 17.4886 82.5304 16.6925C82.1435 15.8918 81.9501 14.9607 81.9501 13.8991C81.9501 12.8376 82.1435 11.902 82.5304 11.0923C82.9217 10.2782 83.466 9.64394 84.1632 9.18963C84.8649 8.73082 85.6835 8.50142 86.6191 8.50142C87.1589 8.50142 87.6919 8.59138 88.2182 8.77131C88.7445 8.95123 89.2235 9.24361 89.6554 9.64844C90.0872 10.0488 90.4313 10.5795 90.6877 11.2408C90.9441 11.902 91.0723 12.7161 91.0723 13.6832V14.358H83.0836V12.9815H89.4529C89.4529 12.3968 89.336 11.875 89.1021 11.4162C88.8727 10.9574 88.5443 10.5953 88.117 10.3299C87.6942 10.0645 87.1949 9.93182 86.6191 9.93182C85.9849 9.93182 85.4361 10.0893 84.9728 10.4041C84.514 10.7145 84.1609 11.1193 83.9135 11.6186C83.6661 12.1179 83.5424 12.6532 83.5424 13.2244V14.142C83.5424 14.9247 83.6774 15.5882 83.9473 16.1325C84.2217 16.6722 84.6017 17.0838 85.0875 17.3672C85.5733 17.6461 86.1378 17.7855 86.7811 17.7855C87.1994 17.7855 87.5772 17.727 87.9146 17.6101C88.2565 17.4886 88.5511 17.3087 88.7985 17.0703C89.0459 16.8274 89.237 16.526 89.372 16.1662L90.9103 16.598C90.7484 17.1198 90.4763 17.5786 90.0939 17.9744C89.7116 18.3658 89.2393 18.6716 88.677 18.892C88.1148 19.108 87.4828 19.2159 86.7811 19.2159ZM98.0016 8.63636V9.98579H92.6309V8.63636H98.0016ZM94.1962 6.15341H95.7885V16.0312C95.7885 16.4811 95.8538 16.8184 95.9842 17.0433C96.1191 17.2637 96.2901 17.4122 96.497 17.4886C96.7084 17.5606 96.931 17.5966 97.165 17.5966C97.3404 17.5966 97.4843 17.5876 97.5968 17.5696C97.7092 17.5471 97.7992 17.5291 97.8667 17.5156L98.1905 18.946C98.0826 18.9865 97.9319 19.027 97.7385 19.0675C97.545 19.1125 97.2999 19.1349 97.003 19.1349C96.5532 19.1349 96.1124 19.0382 95.6806 18.8448C95.2533 18.6514 94.8979 18.3568 94.6145 17.9609C94.3356 17.5651 94.1962 17.0658 94.1962 16.4631V6.15341ZM105.956 5.18182H107.954L112.65 16.652H112.812L117.508 5.18182H119.505V19H117.939V8.50142H117.805L113.486 19H111.975L107.657 8.50142H107.522V19H105.956V5.18182ZM125.694 19.2429C125.037 19.2429 124.441 19.1192 123.906 18.8718C123.37 18.6199 122.945 18.2578 122.63 17.7855C122.316 17.3087 122.158 16.733 122.158 16.0582C122.158 15.4645 122.275 14.9832 122.509 14.6143C122.743 14.241 123.055 13.9486 123.447 13.7372C123.838 13.5258 124.27 13.3684 124.742 13.2649C125.219 13.157 125.698 13.0715 126.179 13.0085C126.809 12.9276 127.32 12.8668 127.711 12.8263C128.107 12.7814 128.395 12.7071 128.575 12.6037C128.759 12.5002 128.851 12.3203 128.851 12.0639V12.0099C128.851 11.3442 128.669 10.8269 128.305 10.4581C127.945 10.0893 127.398 9.90483 126.665 9.90483C125.905 9.90483 125.309 10.0713 124.877 10.4041C124.445 10.737 124.142 11.0923 123.966 11.4702L122.455 10.9304C122.725 10.3007 123.085 9.81037 123.535 9.45952C123.989 9.10417 124.484 8.85677 125.019 8.71733C125.559 8.57339 126.089 8.50142 126.611 8.50142C126.944 8.50142 127.326 8.5419 127.758 8.62287C128.195 8.69934 128.615 8.85902 129.02 9.10192C129.429 9.34482 129.769 9.71141 130.039 10.2017C130.309 10.692 130.444 11.3487 130.444 12.1719V19H128.851V17.5966H128.77C128.662 17.8215 128.482 18.0621 128.231 18.3185C127.979 18.5749 127.644 18.7931 127.225 18.973C126.807 19.1529 126.296 19.2429 125.694 19.2429ZM125.937 17.8125C126.566 17.8125 127.097 17.6888 127.529 17.4414C127.965 17.194 128.294 16.8746 128.514 16.4833C128.739 16.092 128.851 15.6804 128.851 15.2486V13.7912C128.784 13.8722 128.635 13.9464 128.406 14.0138C128.181 14.0768 127.92 14.133 127.623 14.1825C127.331 14.2275 127.045 14.268 126.766 14.304C126.492 14.3355 126.269 14.3625 126.098 14.3849C125.685 14.4389 125.298 14.5266 124.938 14.6481C124.583 14.765 124.295 14.9427 124.074 15.1811C123.858 15.415 123.75 15.7344 123.75 16.1392C123.75 16.6925 123.955 17.1108 124.364 17.3942C124.778 17.6731 125.302 17.8125 125.937 17.8125ZM134.834 15.2216L134.807 13.2514H135.131L139.665 8.63636H141.635L136.805 13.5213H136.67L134.834 15.2216ZM133.35 19V5.18182H134.942V19H133.35ZM139.935 19L135.887 13.8722L137.02 12.7656L141.959 19H139.935ZM147.603 19.2159C146.605 19.2159 145.743 18.9955 145.019 18.5547C144.299 18.1094 143.744 17.4886 143.353 16.6925C142.966 15.8918 142.772 14.9607 142.772 13.8991C142.772 12.8376 142.966 11.902 143.353 11.0923C143.744 10.2782 144.288 9.64394 144.985 9.18963C145.687 8.73082 146.506 8.50142 147.441 8.50142C147.981 8.50142 148.514 8.59138 149.04 8.77131C149.567 8.95123 150.046 9.24361 150.478 9.64844C150.909 10.0488 151.254 10.5795 151.51 11.2408C151.766 11.902 151.895 12.7161 151.895 13.6832V14.358H143.906V12.9815H150.275C150.275 12.3968 150.158 11.875 149.924 11.4162C149.695 10.9574 149.367 10.5953 148.939 10.3299C148.516 10.0645 148.017 9.93182 147.441 9.93182C146.807 9.93182 146.258 10.0893 145.795 10.4041C145.336 10.7145 144.983 11.1193 144.736 11.6186C144.488 12.1179 144.365 12.6532 144.365 13.2244V14.142C144.365 14.9247 144.5 15.5882 144.77 16.1325C145.044 16.6722 145.424 17.0838 145.91 17.3672C146.396 17.6461 146.96 17.7855 147.603 17.7855C148.022 17.7855 148.4 17.727 148.737 17.6101C149.079 17.4886 149.373 17.3087 149.621 17.0703C149.868 16.8274 150.059 16.526 150.194 16.1662L151.733 16.598C151.571 17.1198 151.299 17.5786 150.916 17.9744C150.534 18.3658 150.062 18.6716 149.499 18.892C148.937 19.108 148.305 19.2159 147.603 19.2159ZM154.317 19V8.63636H155.855V10.2017H155.963C156.152 9.68892 156.494 9.27285 156.989 8.95348C157.483 8.63411 158.041 8.47443 158.662 8.47443C158.779 8.47443 158.925 8.47668 159.1 8.48118C159.276 8.48568 159.409 8.49242 159.499 8.50142V10.1207C159.445 10.1072 159.321 10.087 159.127 10.06C158.939 10.0285 158.738 10.0128 158.527 10.0128C158.023 10.0128 157.573 10.1185 157.178 10.3299C156.786 10.5368 156.476 10.8247 156.246 11.1935C156.022 11.5579 155.909 11.974 155.909 12.4418V19H154.317Z" fill="#FFF4E1"/>
</svg>
